<svg viewBox="0 0 459.78 399.27" xmlns="http://www.w3.org/2000/svg" data-sanitized-data-name="Layer 1" data-name="Layer 1" id="Layer_1">
  <defs>
    <style>
      .cls-1 {
        fill: #000;
      }

      .cls-1, .cls-2 {
        stroke-width: 0px;
      }

      .cls-2 {
        fill: #f99716;
      }
    </style>
  </defs>
  <path d="M459.35,253.58v-1.96c-.2-.32-.34-.55-.45-.73q.45-.72.38-1.56c-.1-.1-.2-.2-.31-.31v-3.36c.47-.31.35-1.01.82-1.32v-2.92c-.16-.18-.29-.33-.38-.44v-2.12l.32-.32q.05-.92-.82-2.27v-2.08c-.17-.16-.27-.25-.37-.35v-3.38c-.6-.73-2.09-.72-2.11-1.75.25-.18.59-.42.84-.6v-2.27c-.13-.14-.27-.29-.42-.45v-.75c-.52-.55-1-1.06-1.26-1.33-.75-.36-1.22-.59-1.64-.8-1.91-1.91-3.74-3.67-6.1-5-2.16-1.22-5.39-1.94-7.22-3.67-.62.06-1.03-.72-1.7-.45-.16-.14-.31-.28-.47-.42h-1.24c-.32-.72-1.27-.07-1.59-.77-.47-.04-.94-.07-1.37-.1l-.36-.36h-1.22c-.23-.18-.44-.34-.71-.55-.24.2-.44.37-.63.52h-1.56c-.56-.31-1.02-.57-1.42-.8h-1.95c-.38.21-.61.34-.76.42l-.88-.88h-2.13c-.85-.45-1.6-.85-2.45-1.3h-1.51l-.41-.41h-2.12c-.32-.32-.56-.57-.81-.82h-2.06c-.24.18-.45.34-.63.47-.76-.29-1.01-1.07-1.74-1.34-.31.22-.65.39-1.02.5-.66-.99-1.83-1.11-2.62-1.71-1.03-.04-2-.08-2.97-.12-.33-.71-2.03-.35-2.46-1.19h-5.46c-.16-.15-.32-.29-.48-.43h-3.76l-.39-.39h-2.11l-.45-.45h-5.9l-.44-.44c-.68.27-1.08-.13-1.65.44h-2.53c-.15-.14-.3-.28-.44-.41h-6.3c-.17.15-.32.29-.48.43h-2.05c-.19.16-.35.29-.44.37h-1.3c-.2-.31-.62-.42-.59-.85.33-.64.65-1.28,1.06-2.08.61-.61,1.35-1.35,2.1-2.1h.42c.57-.7,1.36-1.04,2.18-1.34.6-.6,1.19-1.19,1.78-1.78.04-.2.09-.4.12-.57.23-.06.42-.11.61-.16.57-.57,2.86-2.63,2.69-3.53l1.78-1.78c.95-.21,1.36-1.08,1.95-1.53.87-2.01,1.83-3.1,3.4-4.66.03-.46.05-.94.08-1.34l.37-.37v-1.24c.29-.31.58-.61.87-.91v-.83c.54-.34.43-.82.35-1.27-.14-.18-.27-.34-.42-.52.28-.54.55-1.06.88-1.7v-1.8c.48-.44,1.09-1,1.74-1.6v-2.83c.14-.14.24-.24.38-.38.02-1.03-.01-2.07-.1-3.1-.25-.23-.51-.46-.75-.68v-5.08c-.3-.3-1.85-3.99-1.68-4.59-.48-.32-.35-1.02-.84-1.34.28-.73-1.35-3.99-1.85-4.7-.25-.35-1.63-1-1.74-1.27-.31-.85.42-.93.16-1.67-.21-.16-.53-.42-.79-.62v-1.4q-1.63-1.63-2.04-2.75c-.91-.91-1.7-1.7-2.49-2.5-.16-.05-.34-.12-.52-.18v-.46c-.29-.31-.58-.61-.87-.92v-1.66l-4.19-4.19v-.44c-.7-.68-1.39-1.37-2.08-2.07.05-.39-1.47-2.32-1.5-2.34h-.88c-.8-.89-1.01-2.15-2.03-2.92-1.35.1-3.74-3.3-4.55-4.11-.84-1.46-1.2-2.06-2.43-3.29.18-.8-1.26-2.1-1.7-2.54v-1.26c-.13-.13-2.46-2.02-2.46-2.06.18-.32.3-.54.41-.75-3.11-4.21-7.62-6.44-11.24-10.05-.8.14-.94-1.02-1.74-.9-.54-.55-1.09-1.1-1.44-1.46-1.62-.76-2.71-1.5-4.04-2.7-.59.21-1.44-1.06-2.11-.91-.29-.66-1.09-.09-1.44-.6-2.08-1.04-4.16-2.07-6.23-3.13h-.91c-.74-.36-2.36-1.44-3.24-1.34-.34-.66-1.27-.05-1.59-.76h-1.44c-.31-.4-.7-.89-.99-1.25h-1.85c-.66,1.04-2.53-.17-3.25-.5-.21.19-.36.33-.46.43-.53-.28-1.05-.56-1.62-.86-.36.33-.71.64-1,.9-.53.02-.95.04-1.22-.43-.73.06-1.49-.04-2.21.05-.11.34-.2.58-.27.8h-6.24c-.63-.33-1.15-.6-1.66-.87-.26.17-.48.31-.64.41h-1.64c-.2-.15-.34-.25-.46-.34l-.37.37h-1.16c-.52.3-.98.56-1.51.87h-2.84c-.34.62-3.5,1.45-4.14,1.74-.06-.07-.12-.15-.18-.22-.4.45-.8.9-1.2,1.35-.1-.1-.2-.2-.33-.33-.14.12-.28.23-.46.38h-1.2c-.39.59-1.51.86-2.12.86-.4.38-.75.72-1.1,1.05v.43c-1.26.96-2.71,1.68-3.53,3.13h-1.15c-.85.85-1.64,1.64-2.49,2.49v.34c-.18.06-.36.12-.52.17-1.49,1.49-2.98,2.98-4.53,4.53,0,.01,0,.15,0,.29-.74.66-1.39.97-2.16,1.74v1.61c-.48.31-.87.57-1.21.79v.92c.15.16.29.31.45.49-.14.3.14.69-.23.98h-.68l-2.95,2.95v1.5c-.31.46-.79.56-1.22.8v.82c-.29.31-.58.61-.86.91.16.44-.28.59-.44.92v1.45c-.52,1.03-.96,1.9-1.48,2.91-1.8,1.8-4.02,3.51-4.5,6.19-1.07,1.07-2.85,4.18-2.85,5.78-.14.15-.28.3-.42.45v.82c-.15.16-.29.31-.43.47v1.51c-.46.88-.85,1.64-1.25,2.4v2.75c-.12.14-.26.29-.41.46v.81c-.15.16-.29.31-.43.47v1.66c-.15.16-.29.31-.43.48v1.44c-.25.16-.6.39-.87.57v2.05c-.44.87-.8,1.57-1.23,2.4v3.18c-.15.17-.29.32-.43.48v2.34c-.26.5-.44.85-.63,1.22-.19-.04-.38-.08-.56-.12-.05-.39-.08-.73-.12-1.08-.53-.27-1.2-1.37-1.2-1.98.16-.18.3-.33.4-.45v-1.19c.04.07-1.03-2.46-1.23-2.56v-1.23c-.87-.95-1.12-2.35-2.03-3.3-.76-.79-1.84-1.08-2.61-1.87-.01-.7.34-1.2.41-1.88-.24-.45-.37-.68-.46-.84.46-1.14,1.12.16-.04-1.58-.55-.14-.94.13-1.15-.3.26-.39.86-.53.81-1.25-1.23-1.1-1.81-2.23-2.99-3.4v-2.12c-.51-.38-.39-1.18-1.09-1.35q-.5.4-.93.11c.13-.15.26-.31.4-.47-.08-.75-.46-2.06-1.28-2.4v-1.08c-.37-.32-.84-.73-1.3-1.14v-2.7c-.77-.77-1.61-1.61-2.52-2.52.12-.2.28-.48.4-.67v-1.26c-1.23-1.23-2.06-3.32-2.06-5.02-.26-.25-.45-.43-.74-.69-.07.49-.13.87-.2,1.34-.77.29-1.44.22-2.01-.21,1.09-.57.96-1.35,2.47-2.05v-1.42c-1.59-.19-4.45-4.67-4.2-6.25-.59-.51-1.26-2.14-1.39-2.91-.51-.51-1.2-1.2-1.95-1.95v-.64c-.25-.19-.59-.45-.84-.64,0-2.09-3.11-4-2.97-5.65-5.01-5.01-9.44-10.06-15.04-14.1h-.84c-1.03-2.02-3.32-1.31-4.53-2.52h-1.67c-.61-1.16-3.29-1.13-3.77-2.08-1.04-.11-2.08.06-3.03-.07l-.38-.38h-2.95c-.15.14-.3.28-.45.41-.44.16-.59-.29-.93-.44h-1.18c-.12-.12-.22-.22-.39-.39h-5.43c-.27-.21-.43-.33-.61-.47h-10.88l-.42-.42h-1.69c-.17-.17-.27-.27-.37-.37h-10.84c-.84.45-1.59.85-2.44,1.3h-1.91c-.68.57-1.43.79-2.22.93-.1.1-.2.2-.31.31h-1.26c-.45.45-4.24,2.87-5.06,2.53-.56.56-1.11,1.11-1.67,1.67h-1.06c-1.07.53-3.2,1.26-3.84,2.38-1.87.48-3.73,3.3-5.04,4.55.37,1.51-2.33,2.4-3.11,3.18-.43.03-.7.04-.94.06-.52.7-1.36,1.07-1.51,1.97-.65.65-1.29,1.29-1.9,1.9-.21.46-.39.88-.66,1.48-.92.54-1.17,1.92-2.25,2.64h-.86c0,.44-.19.79-.54,1.05v1.25c-.94.78-2.11,2.87-2.53,4.01,0,.21,0,.42,0,.62-.15.16-.29.31-.43.47v1.96c-.32.57-.57,1.03-.87,1.56v1.54c-.14.14-.24.24-.38.38,0,1.22-1.01,2.97-1.71,3.91v1.01c-.44.86-.8,1.56-1.24,2.4,0,2.07-.55,5.23.14,7.18.08.07.19.16.28.25v5.64c.25.19.59.44.87.65v1.75c.13.13.23.23.4.4v5.9c.17.17.27.27.39.39v1.23c.15.16.28.32.43.48v.81c.15.16.29.31.43.47v.81c.15.17.29.32.42.46-.17,1.09,1.01,1.76.84,2.83.57.65.67,1.58,1.27,2.22v2.52c.28.65.7,1.21,1.26,1.66v2.3c.49.99.92,1.87,1.45,2.94.3.3,1.73,2.43,2.25,2.7,2.19,4.42,3.19,8.64,6.89,12.34.45.19.63.27.79.34v.86c.36.43,1.42,2.31,1.26,2.88.42.46.84.92,1.27,1.4v.38c.9.9,1.8,1.8,2.69,2.69.19.04.38.08.57.12.05.22.1.41.05.21.67.8,1.12,1.33,1.48,1.75,1,.27,1.5-.58,2.32-.67v.9c-.18.29-.31.52-.42.69.42.78,1,1.4.89,2.27.44.54,1,1.93,1.92,1.93,2.89,3.59,6.87,6.22,9.47,10.05-.08.73-1.68,1.95-2.12,2.38v.47c.17.06.35.13.56.21.58-.62,1.15-1.23,1.55-1.66.43-.1,1.6.36,1.96.41.88.88,3.32,4.05,4.96,3.74,1.13,1.1,2.24,2.03,3.53,2.95h1.73c1.06,1.06,2.19,2.19,3.37,3.37.8,0,5.55,2.23,6.1,2.89.71-.16,1.51,1.12,2.18.88,1.21,1.25,2.33,1.63,3.77,2.55.56-.23.73.67,1.29.45.28.46,2.32,1.49,2.59,1.65h3.8c.97,1.1,2.22,1.56,3.28,2.53h2.53c.13-.12.28-.27.44-.41.46.06.96-.15,1.42.15.04.33.08.66.11.98.22.21.42.39.57.53h.8c.28-.24.49-.42.67-.57.09-.38-.14-.76.28-1.13.23.33.46.66.63.89h.86c-.15-.08,2.42.99,2.46,1.05.41.85.33,1.48-.25,1.9-1.85,0-2.12,1.24-3.65,1.7-.19-.13-.4-.29-.65-.46-1.8.18-3.2,2.06-4.99,2.17-.64,1.36-6.26,3.01-7.72,3.75-.35,0-.7,0-1.07,0-.14.13-.3.27-.45.42h-1.67c-.08.17-2.38,1.83-2.28,1.73-.11.55.1.93-.25,1.21-.29-.28-.59-.56-.88-.83-1.13,0-1.73.59-2.61,1.29h-2.95c.05.07.1.15.15.22-.24.11-.49.22-.73.33.22.22.32.32.52.52-.24.21-.48.42-.69.61h-.87c-.59.74-1.39,1.06-2.6,1.52-.26.26-.8.8-1.4,1.4h-.8c-1.44.71-3.92,2.84-5.39,3.07-1.3,1.85-4.69,3.75-6.52,5.25-1.15.94-4.44,5-5.95,4.75-.46.42-.91.85-1.23,1.14-4.88,2.42-7.62,7.36-12.05,10.39-.15,1.61-3.43,3.46-3.43,4.88-.73.8-1.34,1.47-1.95,2.14-1.5.21-4.08,5.5-5.05,6.81-1.2,1.62-1.96,3.16-2.78,4.87-1.14,1.14-4.22,3.87-3.73,5.83-.63.54-.56,1.49-1.19,2.04.14.69-1.16,1.47-.9,2.16-.78.37-.86,2.06-1.3,2.69v2.68c-.45.86-.81,1.56-1.23,2.37v.99c-.45.85-.85,1.6-1.3,2.46v1.36c-.3.56-.51.97-.79,1.5v2.45c-.59.18-.35.95-.88,1.28.47.95.43,1.68-.14,2.21-.21.04-.4.09-.66.14v3.51c-.51.25-1.81,3.2-2.11,3.79v2.93c.14.17.26.32.38.46-.28.28-.53.53-.78.78-.03.33-.06.66-.09.93-.16.16-.26.26-.36.36v.84c.13.15.27.3.41.45.16.44-.28.59-.4.84v8.92c.8.23.04,1.23.76,1.54.04.47.07.94.11,1.37l.42.42v1.69c.17.17.27.27.38.38v2.94c.15.16.29.31.43.47v1.1c.39.76.72,1.4,1.03,2,.22.05.41.09.6.13v1.79c-.18.25-.3.41-.38.52v.91c.38.3.87.69,1.17.93-.02-.06-.19,2.23-.26,2.75.15.2.27.35.35.46v1.99c.12.14.25.29.41.47v.78c.31.5.79.73,1.29.94v3.77c1.39,1.39,2.86,2.61,3.78,4.35v1.22c1.63.91,2.1,1.35,1.42,1.34.5.04.76.06,1.05.08.2.64-.04,1.1-.31,1.49v1.36c.54.51,1.1,1.04,1.63,1.53.36,1.18,1.49,3.03,2.86,3.26.88,1.26,1.71,1.94,3.06,2.67-.11.53.38.69.62,1.01.61.06,1.24-.05,1.91.07v1.85c.27.26.47.45.69.66.79-.23,1.34.6,2.15.45.51.97,2.4,2.02,3.22,2.84.99.15,2.87,1.77,3.85,1.33.17.15.33.29.49.44h1.48c1.44.73,2.72,1.38,4.14,2.1h.98c.45.27,3.59,1.18,3.86,1.66h1.25c.16.15.31.29.47.43h.83c.16.15.31.29.47.43h.8c.18.16.33.29.5.43h6.67c.19.15.32.26.46.36.14-.14.24-.24.36-.36h1.7c.11.1.27.24.44.39h.83c.14-.13.29-.27.44-.41h5.46c.16-.15.31-.29.46-.42.89.11,1.5-.47,2.27-.88h2.24c.56-.3.97-.52,1.5-.8.32.11.81-.17,1.32.16.05.06.14.16.22.25h2.96c.16-.15.32-.29.48-.43h.79c.19-.16.34-.29.44-.37h3.81c.13.13.23.23.35.35h4.28c.66-.43.59-1.31,1.28-1.65h1.17c.21-.32.56-.85.86-1.3h2.88c.87-.45,1.57-.8,2.41-1.23h.86c1.24-.48,1.97-1.45,3.13-1.68.15.14.3.28.46.42h2.31c.67-.63,1.41-.91,2.24-.82.33.2.55.34.73.45.4-.15.55-.59,1.03-.45.11.09.26.23.44.38h1.24c.68-.48.86-1.28,1.34-2.34.29-.29.83-.83,1.45-1.45v-.55c.25-.31.43-.53.58-.72h1.73c.88-1.2,2.67-.96,2.75-2.74.86-1.13,2.79-1,3.52-2.3h.89c.5-.75,1.52-.89,2.04-1.63,1.07-.16,1.41-1.26,2.26-1.77h.77c1.19-1.19,2.02-.75,2.93-1.66h.84c1.43-1.43,2.86-2.86,4.19-4.19.44-.03.71-.05.9-.06,4.58-4.58,9.68-8.4,14.21-12.95.54-.16,1.04-.39,1.52-.69,1.61-2.26,3.8-4.21,5.75-6.16.37.02.64.04.86.05,1.46,1.46,2.52,2.92,3.72,4.6.54.08,1.04-.16,1.55.23v1.58c.46.8.61,1.62,1.54,1.68,1.12,1.29,1.65,2.83,2.69,4.16.57.72,2.18,1.59,2.49,2.34v1.2c.15.17.29.32.43.49v.78c1.07,1.08,2.11,2.13,3.15,3.17h1.17c.23.32.6.83.89,1.24.43.02.7.04,1,.05,1.57,2.62,4.02,4.42,6.46,6.14.86.6,3.88,3.3,4.82,3.12,2.13,2.91,6.28,4.17,8.74,6.64,1.24.42,2.58,1.38,3.94,1.41,1.78,1.09,3.74,1.84,5.47,2.84h7.45c.57-.3.97-.52,1.48-.79h1.97c.15.14.3.28.46.43h1.65c.17.15.33.29.45.39.27.1,3.77-.44,3.85-.48.1-.1.2-.2.32-.32h1.22c.17-.15.32-.28.48-.42.32-.02.65-.04.88-.05.19-.19.29-.29.39-.39.28,0,.56,0,.73,0,.54-.31,1-.57,1.52-.87h1.14c1.12-1.12,10.93-6.72,12.99-5.88.51-.83,2.28-.47,2.64-1.26,1.15.23,3.51-1.76,4.33-2.27.05-.2.09-.39.15-.65.82.06,1.07-.7,1.6-1.11v-1.19c.38-.41.71-.77,1.03-1.12h1.11c.45-.21.74-.36,1.14-.55.43-.43,2.14-1.24,2.55-1.7.04-.33.08-.66.12-1.03.2-.04.39-.08.61-.13l.58-.58v-1.25c.43-.68,1.17-1.56,1.65-2.19.28-1.8,1.83-4.19,2.99-5.59v-1.25c.38-.3.87-.69,1.24-.98v-2.28c-.25-.12-1.26-2.68-1.24-2.66v-1.06c.34-.28.5-.9,1.15-.57.23.31.08.66.09.92-.18.26-.32.48-.57.85.33.21.61.4.91.59.07-.06.56-1.71.53-1.79,1.94-1.81,2.18-5.01,3.82-6.85v-2.9l1.23-1.23v-.41c.15-.16.29-.31.43-.47v-2.09c.55-.55,1.1-1.1,1.66-1.66v-1.15c.31-.53.57-.98.87-1.5v-1.58c.15-.17.29-.33.39-.44v-2.14c-.58-.32-1.72-.88-1.66-1.64.62-.25,1.17-.61,1.66-1.07v-1.03c-.16-.2-.29-.36-.43-.53v-8.79c-.14-.14-.24-.24-.41-.41v-3.37c-.17-.17-.27-.27-.38-.38-.02-.61-.04-1.22.02-1.87h3.59c.12.12.22.22.35.35.44.02.91.04,1.32.06.16.16.26.26.43.43h1.59c.57.32.97.54,1.44.81h2.4c.17.15.32.29.49.43h3.33c.12.12.22.22.39.39h2.06c.27.21.43.34.49.38h9.31c.15-.15.25-.25.36-.36h2.5c.16-.15.31-.29.47-.43h.82c.16-.15.31-.29.47-.43h1.98c.11-.19.31-.56.49-.87h2.02c.86-.45,1.56-.81,2.37-1.23h1.12c.16-.15.31-.29.47-.43h.82c1.59-1.59,4.35-2.61,6.42-3.47l1.31-1.31c.05-.19.1-.38.15-.57.06.06.12.12.18.18.26-.42.52-.84.73-1.18h2.18c1.13-.84,2.32-1.63,3.46-2.49.72.19,1.21-.69,1.94-.42.44-.6,1.52-.73,2.16-.86.16-.15.32-.28.48-.43h3.33c.12-.12.22-.22.39-.39h1.46c1.96-.98,3.65-1.82,5.48-2.73.48-.48,1.07-1.07,1.71-1.71,0-.97-.1-1.62.63-2.28,4.46-.56,11.56-11.06,13.4-15.11-.04-.04-.08-.08-.13-.12.69-.69,1.38-1.38,2.17-2.16v-1.44c.69-.69,1.33-1.33,1.98-1.98.36-1.38,1.31-3.29,2.21-4.39v-2.9c.59-.29.3-.87.46-1.29l.78-.78c0-2.74-.67-6.92.16-9.51.19-.16.45-.39.68-.58v-1.71c-.15-.17-.29-.33-.43-.49ZM190,209c-1.19-1.32-9.24-7.29-10.68-6.99-.54-.72-2.02-.98-2.76-1.46-1.85-1.23-3.55-2.8-5.19-4.3-1.64-.75-2.64-1.82-3.9-3.09h-1.13c-.98-.38-1.08-1.52-1.83-2.11-.14,0-.28,0-.43,0-.84-.84-1.68-1.69-2.52-2.53h-.47c-.08-.23-.16-.48-.26-.77-.17-.04-.36-.08-.6-.13-1.07-1.37-2.97-2.57-4.25-3.85-.48-1.24-1.44-3.08-2.93-3.35-.71-.82-3.44-3.74-3.57-4.84-.46-.33-1.79-1.89-2.54-1.31-.27-.25-.47-.43-.71-.66v-1.12c-.66-.63-1.27-1.19-1.74-1.63v-.69c-1.19-1.19-2.54-2.56-3.5-3.93-.64-.91-3.66-4.56-3.66-5.31-1.06-1.29-1.96-1.97-2.68-3.5-1.13-1.27-1.83-2.33-2.55-3.87-2.79-2.77-4.67-5.92-7.42-8.67v-1.24c-.15-.16-.29-.31-.43-.46v-.82c-.15-.16-.29-.31-.43-.47v-1.24c-.26-.26-.51-.51-.79-.79v-1.52c-.45-.84-.85-1.59-1.3-2.44v-4.08c-.1-.1-.2-.2-.3-.3-.77-2.41-.12-6.42-.12-8.97.76-.76.09-1.26-.02-2.16.26-.18.6-.43.85-.6v-2.26c.15-.16.29-.31.43-.46v-1.25c.35-.41.89-.68.9-1.32,1.64-2.38,2.29-5.13,3.86-7.57,2.35-3.67,4.71-5.29,8.11-7.76,1.08.25,2.72-2.13,4.02-1.65v-1.51c.23-.24.42-.44.6-.63h.44c.3.66.07,1.28-.67,1.86.57.48,1.04.37,1.47-.16h1.22c.33-.22,1.27-.91,1.71-.84.11.08.32.24.55.42h6.27l.36.36h1.6c.18.14.34.26.51.4q1.32.09,2.56.9h1.67c.19-.5.43-.96.91-1.26.45-.06,3.03,1.86,3.54,2.11.46-.08.64-.51,1.02-.8h1.34c.63.63,1.36,1.36,1.8,1.8.59.31.82.43,1.26.66,2.71.22,4.85,1.78,7.24,3,.47.24,5.41,3.44,6.09,3.35.34.67,3.18,2.36,3.89,2.62.46.46,1,1,1.55,1.55.8-.12.93,1.03,1.74.89,1.62,1.62,2.84,3.34,4.84,4.45,0,.14.01.28.02.47.17.05.36.11.84.27,1.56,1.68,2.56,3.5,4.2,5.14-.46,1.19,2.54,3.41,2.95,3.8v.51l2.87,2.87c.53,1.26,1.13,2.35,2.47,2.8-.02-.04,1.67,1.44,2.23,1.88v.78c-.11.12-.24.27-.4.45,0,1.41,1.89,2.29,2.72,3.13.2-.16.34-.27.47-.38.32.34.09.71.19,1.04.25.25.5.5.79.79v1.94c.44,1.02.89,2.06,1.37,3.08-.2.22-.34.37-.48.52-.27.86,2.12,3.37,2.54,3.8v2.33c1.57,3.13,3.06,6.09,4.63,9.22v1.06c.15.16.29.31.41.43.32,1.24.75,3.22,1.68,4.19.04.47-.08.99.45,1.29-.14.86,1.11,1.97.84,2.81.4.75.79,1.5,1.25,2.38v1.52c.15.16.29.31.43.46v.83c.15.16.29.31.43.47v.82c.11.11.21.21.39.39v1.69c.57.57,1.22,2.38,1.41,3.1.44.29.26.75.3,1.13.15.16.29.31.43.47v.8c.16.18.29.33.43.5v2.48c.16.16.99,1.53,1.22,1.64-.21.56.67.73.45,1.29.29.29.59.59.93.93-.14.25-.27.48-.41.74.25.5,1.39,2.16,1.17,2.96.14.16.28.31.43.47v2.08c.26.26.51.51.76.76.36,1,.2,1.08.9,2.26v1.14c.15.16.29.31.43.47v.83c.1.1.2.2.38.38v1.69c.32.32.57.57.82.82.15.42-.12,1,.46,1.29v1.22c.57.69.73,1.57,1.3,2.26v2.05c.12.12.22.22.36.36v1.09c.64,1.18.61,1.47,1.72,1.82v.92c-.13.14-.27.3-.41.44v1.26c.35.35.7.7,1.05,1.05.28,0,.56,0,.84,0,.5.7.57,1.53.21,2.48h-1.4c-.25.22-.4.35-.51.45h-5.07c-.12-.12-.22-.22-.4-.4h-2.95c-.17-.17-.27-.27-.38-.37h-3.05c-.15.15-.25.25-.36.36h-1.27c-.28-.26-.58-.55-.88-.84h-4.19c-.26-.26-.51-.51-.83-.83h-2.53c-.17-.17-.27-.27-.37-.37-.62-.08-1.7.17-2.13-.45-.67.24-1.09-.49-1.71-.45-.3-.51-.99-.4-1.34-.84-.96.2-4.48-1.29-5.02-2.11-1.7,0-1.97-.45-3.4-1.67h-2.07c-.89-1.91-4.71-1.42-5.4-3.42-.84.33-1.31-.58-2.03-.38-.62-.61-1.41-.38-2.21-.43-.16-.15-.36-.33-.6-.55-.03-.3-.07-.63-.1-.97-.28-.33-.67-.05-1.24-.33ZM252.36,243.58c-.54.1-1.05.03-1.55-.22-.03.19-.07.43-.12.76.44.03.77.05,1.11.07.37.42.1.93.18,1.4-.64.99-3.46,3.49-4.23,4.2v.91c-.41.41-.8.8-1.23,1.23v1.64c-.14.17-.28.32-.43.5v1.19c-.18.31-.59.47-.43.92-.78.58-1.33,1.33-1.67,2.23v1.16c-.28.22-.61.48-.87.68v1.4c-.26.21-.43.54-.87.69-.11-.08-.24-.17-.36-.26-.18.33-.39.67-.65,1.06-.71,1.04-1.34,2.12-1.93,3.22v.78c-.26.26-.51.51-.76.76-.16.34-.32.68-.47,1.02v1.64c.25.18.6.42.82.57v1.05c-.44.47-.73.13-1.02-.18-.61.64-.24,3.65-.24,4.32.09.12.21.28.36.46.07.74-.24,1.47-.4,2.21-.29.23-.67.53-1.21.95h-.17c.42,1.18.28,2.58,0,4.6-.14.99-.34,2.1-.45,3.22.06.05.14.11.19.15v2.41c.18.81.37,1.61.61,2.4.19.63.17,1.35,0,2.13.31-.17.64-.3.91-.52.32.28.1.66.17.99-.14.15-.28.3-.42.45v.83c.14.15.27.3.44.48-.28.1-.52.19-.84.3v5.11c-.17.17-.27.27-.41.41v10.98c.07.08.2.24.36.44v.86c.25.17.53.37.75.52.07.33.11.52.15.75.11.12.25.27.4.43v.8c.16.18.29.33.41.47v1.93c.25.46.5.92.82,1.51v2.63c.48.9.91,1.83,1.29,2.78-.38,1.29,1.82,3.05,1.22,4.48.32.52.55,1.03.94,1.51-.22.44-.39.79-.63,1.29-.32.32-.77.77-1.22,1.22-.94.42-1.88.93-2.75,1.47-.06.21-.11.4-.15.59-.45.45-.89.89-1.38,1.38-.13-.11-.27-.22-.46-.36h-.8c-.39.31-.89.6-.73,1.24-.3,0-.44,0-.58,0-.55.55-1.09,1.09-1.64,1.64-2.02.23-2.67,1.41-3.82,2.55-.23,0-.5.02-.88.04-1.35,1.34-1.62,1.82-3.51,2.63-.46.48-1,1.03-1.54,1.58-.45-.16-.6.27-.93.43h-.78c-.98.64-1.87,1.39-2.67,2.25-.02.13-.03.27-.05.42-1.11.69-2.13,1.34-3.3,1.94h-.63c-2.66,2.38-5.7,4.37-8.21,6.88-.03.15-.08.34-.12.55-.46.22-.93.44-1.62.77-1.05,1.05-9.04,9.8-11.11,9.09-.69.3-.88,1.3-1.79,1.28-.55.55-1.09,1.09-1.53,1.53-1.82.83-3.36,2.22-5.35,2.73-1.17,1.28-2.98,2.39-4.63,3.03-.32.59-1.15-.06-1.44.6-1.9.69-3.66,2.21-5.63,2.68-.3.5-1.93.74-2.49,1.2h-2.06c-.16.15-.31.29-.46.43h-2.94c-1.05-1.05-3.71-.42-5.06-.42-.13-.13-.23-.23-.4-.4h-3.37c-.17-.17-.27-.27-.45-.45h-4.22c-.17-.17-.27-.27-.4-.4h-9.56c-.37-.21-2.15-.93-2.46-1.5v-.76c-.46-.76-1.44-.82-1.89-1.53-1.15.35-3.28-2.44-3.79-2.97h-.83c-1.74-1.1-3.22-2.75-4.66-4.19h-1.17c-.73-.73-1.42-1.43-2.06-2.06-.44-.05-.77-.09-1.17-.14-.02-.28-.04-.54-.06-.87.1-.13.21-.29.39-.54v-2.91c-2.05-3.11-2.2-6.07-5.01-8.89.31-.31.56-.56.82-.82v-3.38c-.11-.12-.25-.27-.4-.44v-.81c-.15-.16-.29-.31-.43-.47v-.81c-.15-.17-.29-.32-.43-.48v-2.92c-.27-.27-.51-.51-.84-.84v-1.69c-.17-.17-.27-.27-.39-.39v-2.5c-.15-.16-.28-.31-.43-.48v-2.09c.09-.09.18-.2.4-.42.08-.47-.02-1.1.03-1.71.1-.1.2-.2.37-.37.13-.96-.04-2,.05-2.85.29-.56.51-.96.8-1.52v-1.02c.18-.26.33-.47.54-.76-.16-.22-.31-.43-.5-.69v-.69c1.03-1.86.84-3.27.84-5.5.61-.87.64-1.85,1.25-2.64v-2.46c.15-.16.29-.31.43-.48v-.83c-.14-.15-.28-.3-.41-.44v-.85c.22-.12,1.25-2.59,1.23-2.55v-3.32c-.09-.1-.22-.26-.38-.44v-3.59c.81-1.67,1.64-3.32,2.5-4.96v-2.39c-.12-.13-.26-.28-.41-.44.2-.19.4-.38.6-.57.19.13.4.27.55.37q.36,0,1.02-.85c-.13-.19-.28-.41-.43-.63,1.08-1.34,5.73-10.57,5.43-11.8.82-.82,1.3-1.64,2.09-2.52v-.82c.96-.33,1.48-1.15,2.12-1.71v-.85c.58-.58,1.83-2.32,2.77-2.32.93-1.31,2.6-3.73,3.84-4.72.21-.95,1.08-1.37,1.58-2.03,2.16,0,5.73-4.11,7.4-5.69,0-.42,0-.84,0-1.27.76-.53,1.64-.6,2.65-.21.32-.09.44-.58.91-.41.13.12.28.25.41.37.46-.26.91-.52,1.4-.8.3,0,.65,0,1.01,0,1.01-.56,2.19-.97,3.1-1.68.49.02.98.05,1.3-.43.36.13,1.54-.7,1.76-.84.35,0,.7,0,1.05,0,2.54-1.66,4.91-2.27,7.07-4.42-.29-.14-.56-.27-.83-.4v-.48c.15-.06.33-.14.63-.27.23.33.47.67.66.95.83-.26,2.29-1.54,3.18-1.33.32-.54,3.38-1.55,3.99-1.62.44-.23.73-.38,1.2-.62,2.13-2.13,3.98-4.4,6.12-6.55h1.15c.53-.3.98-.57,1.51-.87h1.58c.11-.11.21-.21.37-.37.4-.02.87-.05,1.34-.08.25-.25.5-.5.75-.75.78.15,1.33-.67,2.13-.48.15-.13.3-.27.46-.42h3.35c.16-.15.31-.29.47-.43h.82c.11-.11.21-.21.36-.36.39-.06.78-.07,1.17-.06-.2.14,2.54-1.08,2.58-1.25h1.74c.16-.15.31-.29.47-.43h1.68c.24-.25.48-.5.7-.73.98-.11,1.95-.14,2.93-.11.52-.28,1.03-.56,1.64-.89.18.12.39.26.71.47.65,0,1.71-.31,2.1-.93,1.42.73,2.61,1.41,4.13,1.79.13.12.28.26.44.4h.82c.16.15.31.29.47.43h.82c.51.51,1.33.22,1.78.83h2.31c.46.26.92.51,1.49.83h4.91c.16.15.31.29.47.43h1.68c.1.1.19.2.36.37h2.51c.25.22.4.35.59.52,1.32-.62,1.54-.44,2.96.36h2.81c.16.15.31.29.46.43h4.21c1.45,1.47,1.3.21,2.77,1.04-.03-.03.19.23.4.49-.01.14-.03.28-.04.42ZM265.47,162.92c0-1.16.39-2.07.89-3.12-.12-.17-.28-.38-.5-.67-.12-.33.27-.5.44-.76v-.82c-.15-.17-.29-.33-.39-.45-.07-.19.4-1.37.4-1.61-.1-.13-.23-.28-.4-.49v-1.25c.09-.11.23-.26.38-.44v-5.44c.15-.16.29-.31.43-.47v-1.25c-.14-.15-.28-.3-.42-.45v-.73c-.07-.1-.19-.26-.37-.52v-.88c.1-.1.2-.2.33-.33v-1.62c.14-.17.27-.33.43-.53v-1.19c.15-.17.28-.32.43-.5v-1.22c.15-.16.29-.31.43-.47,0-.27,0-.55,0-.83.1-.1.2-.2.37-.37v-1.27c.32-.32.57-.57.87-.87.01-.22.02-.49.04-.79.81-1.92,2.39-5.31,3.79-6.84v-1.25c.95-.95,1.89-1.89,2.83-2.83.99-2.38,3.23-4.47,3.93-6.88,2.8-2.79,6.1-3.55,9.07-6.04.73.16,2.23-.78,2.93-.9.25-.25.5-.5.79-.79h6.67c.18-.14.33-.27.51-.41.44-.08.93-.19,1.27.35h2.08c.16.15.31.29.48.43h4.61c.55.52.98.38,1.71.41.16-.14.31-.28.45-.4.97-.14,1.58.68,2.44.85.14-.12.3-.25.47-.4.14.12.28.25.44.39h1.24c.3.51,1,.4,1.34.85.84-.17,1.48.79,2.2.45.49-.08.6-.6,1.1-.42,1.33,1.87,5.88,1.36,6.75,3.35.42,0,.84,0,1.26,0,.1.1.2.2.37.37,1.37-.08,2.7,1.11,4.07,1.38.66.83,1.54,1.28,2.3,2.04.32,0,.53,0,.74,0,1.42.99,3.4,4.03,5.19,4.25.69.7,1.37,1.4,1.86,1.9.84.36,2.43,1.81,3.27,1.97.05.2.1.39.15.58.45.45.89.89,1.39,1.39.22.01.49.02.89.05.66.66,1.4,1.4,2.14,2.14,1.26,3.48,7.75,6.37,7.75,10.35.96.95,1.96,1.93,2.81,2.78.67,1.45,1.34,4.74,2.67,5.63.02,1.02,1.01,2.97,1.68,3.77v3.34c-.13.14-.27.29-.42.45v.83c-1.11.46-1.26,3.2-1.26,4.1-.26.47-.52.93-.84,1.48v1.14c.13.14.27.3.41.44v.7c-.42.82-.78,1.51-1.23,2.38v3.06c-.25.77-1.22,1.64-1.69,2.29-.11.92.04,1.96-.06,2.98-.76.76-1.24,1.43-1.24,2.51-1.41.89-1.87,3.44-2.95,4.66v1.23c-.55.54-1.1,1.08-1.48,1.45-1.37,2.71-3.13,5.16-5.24,7.38v.96c-.41.33-.9.71-1.39,1.1.06.05.13.11.19.16-.37.61-1.36,1.86-1.39,2.6-.33.02-.6.04-.89.06-.36.21-.87.54-.76,1.05-1.02.49-2.49,5.15-4.42,4.42-.5.49-1.01.97-1.48,1.43.09.58-.35.77-.61,1.09h-.82c-.16.15-.31.29-.47.43h-.82c-.16.15-.31.29-.45.42-1.07.08-1.36.23-3.18,1.75-.19-.15-.4-.31-.62-.48h-2.08c-.1.1-.2.2-.38.38h-1.69l-.42.42c-.42.03-.9.07-1.37.1-.32.69-1.27.04-1.59.76h-2.09c-.16.15-.32.28-.48.43h-5.04c-1.13-1.94-4.55-4.5-6.27-6.19-1.55-1.53-3.32-2.53-4.87-4.08v-1.34c-.31-.16-.69-.35-.87-.44v-1.16c-.56-.56-1.22-.79-1.96-.68-.1-.2-.25-.51-.4-.81-.04.04.06-.06.2-.2v-1.61c-.31-.62-.63-1.26-.96-1.92-.7-.03-1.31-.39-1.93-.74.1-.1.2-.2.37-.37v-2.07c.2-.25.31-.39.42-.52-.45-.42-2.19-.18-2.7-.18-.16.14-.31.27-.45.4-.26-.26-.51-.51-.76-.76-.48-.09-.96-.21-1.34.4-.34-.91.59-2.02,1.01-2.82-.14-.14-.32-.34-.53-.56h-.81c-.33-.65-.75-1.22-1.28-1.71h-3.02c-.11.11-.21.21-.3.3-.39.21-.81.07-1.22.11-1.91,1.04-3.08,3.76-4.6,5.29.05.22.07.35.11.53.17.04.36.08.62.13.04.14.1.33.16.51-.71.39-1.39.77-2.02,1.12-.29.75-.12,2.06-.12,2.83.42,1.3,1.27,1.93,1.68,3.11v.99c.15.16.29.31.43.47-.03.61.05,1.23-.08,1.95-.34-.52-.33-.52-.38-1.17-.28-.18-.39-.6-.91-.6-.01,0-2.27,2.42-2,2.18,0,.55,0,.9,0,1.25.35.91.91,1.66,1.68,2.25-.34,1.26,1.8,2.91,2.51,3.8-.12.13-.25.28-.39.43,1.45,1.39,2.98,2.56,4.42,4.01,1.47-.46,7.74,3.94,8.66,4.86-.05.23-.08.36-.13.58-.31.02-.64.04-.96.05-.16.14-.32.28-.48.42h-4.17l-.36.36h-4.09c-1.45,1.09-2.39,2.35-3.74,3.48v1.25c-.27.79-1.37.99-1.31,2h-1.37c-.2-.12-.48-.28-.86-.52-.27.39-.52.73-.7.98h-1.43c-.53.55-1.06,1.11-1.63,1.7h-1.44c-.11,1.1-.51,2-1.32,2.68v1.05c.38.03.71.06,1.1.1.05.17.1.36.16.58-.31.15-.6.28-.88.42v1.16c-.52.73-.98,1.38-1.5,2.1-.32-.68-.13-1.31-.2-1.95-.11-.13-.25-.28-.4-.46v-.82c.39-.31,1.01-.33,1.21-.91l-.65-.65c-.32.16-.66.33-.99.49-.42-.03-.54-.43-.84-.63,0-1.36,1.84-2.69,2.66-3.51.19-.05.38-.1.57-.15.19-.42.38-.83.57-1.24-.16-.29-.32-.57-.43-.77.49-.49.93-.92,1.26-1.24v-2.35c-.09-.09-.19-.2-.4-.42-.08-.48.02-1.1-.03-1.7-.15-.16-.28-.31-.41-.46v-1.15c-.08-.11-.2-.27-.41-.55v-1.62c-.32-.32-.57-.57-.94-.94.49-.37.98-.74,1.33-1v-3.17q-.42.07-.62.25h-.89c-.3-.57-.09-1.21-.16-1.81.16-.22.31-.43.51-.72-.17-.23-.32-.44-.51-.68v-1.89c-.48-.94-.89-1.75-1.38-2.69.25-.21.5-.42.74-.61.18.15.34.29.51.43.68-.14.96-.73,1.39-1.13,0-.3-.09-.43-.85-1.36,0-.2,1.34-2.05,1.25-1.99v-1.67l-.36-.36v-2.63c.1-.1.2-.2.33-.33v-1.38c.12.07-1.18.22-1.38.27-.44-.24-.73-.7-1.15-1.1.08-.69.74-.94,1.11-1.42h.83c.45-.42.01-.96.26-1.36-.18-.2-.32-.36-.47-.53v-2.48c-.7-1-2.13-.9-2.72-1.93h-2.97c-.17.14-.31.26-.49.42-.11-.29-.2-.53-.32-.87-.33.12-.65.23-.98.35-.25-.46-.02-.95-.14-1.38.52-.29.45-.72.45-1.14-.65-.54-.33-1.59-.82-2.25v-1.19c-.15-.16-.28-.31-.43-.48v-1.67c.13-.14.27-.29.4-.44-.14-.15-.28-.31-.38-.43v-2.12c.12-.12.22-.22.36-.36v-1.29c-.47-.56-.32-1.12-.78-1.72v-2.5c.11-.12.25-.28.45-.5-.42-.08-.8-.15-1.24-.24-.07-.76.37-1.27.77-1.9ZM270.62,307.51c-.09.25-.17.5-.25.73h-.48c-.19-.19-.38-.39-.6-.62v-1.76c-.42-.34-.9-.73-1.28-1.04v-1c.15-.17.29-.32.4-.44.44-1.17-1.04-1.07.64-1.46.15.14.3.29.46.43h.83c.22.38,1.53.63,1.86.81.68.68,1.17,1.16,1.71,1.71.05.67-2.82,2.54-3.29,2.65ZM343.84,345.62c-.23.17-.56.42-.89.68.03.03.06.06.09.09-.76.38-1.51.75-2.55,1.27-.46.47-1.14,1.17-1.82,1.87h-.88c-.53.56-1.05,1.12-1.61,1.72-.81-.26-1.35.58-2.21.4-.97.97-2.3,1.14-3.3,2.04-.82,0-1.06,1.05-1.89,1.04-1.39.91-2.69,1.87-4.22,2.56-1.53,1.41-3.4,1.65-4.8,3.21.13.2.27.42.44.68-.14.15-.32.35-.58.61-.43-.43-.85-.85-1.27-1.27-1.09,1.09-2.19,2.19-3.28,3.28-3.2.83-6.11,3.97-9.16,5.32,0,.19,0,.33,0,.47-.28.19-.41.57-.92.65-.14-.1-.35-.25-.61-.44h-5.41c-.2-.39-1.91-1.44-2.34-1.32v-.58c-.54-.59-1.3-.64-2.27-.15-.5-.79-2.62-1.92-3.21-2.34v-.4c-.52-.54-1-1.05-1.46-1.54-.18,0-.32-.02-.45-.02-.55-.55-1.09-1.09-1.64-1.64-.14,0-.27-.02-.42-.03,0,0-.81-2.15-1.06-2.29v-1.22c-1.1-1.25-1.52-3.76-2.96-4.68v-1.71c-.43-.24-1.52-2.36-1.66-2.58v-1.57c-.14-.17-.28-.32-.43-.51v-.76c-.17-.32-.59-.47-.46-.84-.41-.93-1.43-1.06-2.06-1.74v-2.19c-.43-.35-.91-.75-1.3-1.07v-1.69c-.72-1.41-1.38-2.69-2.1-4.08v-.55c.44-.9-.29-1.08-.72-1.3l-.05,1.22q-.19-.19-.97-.21c-.44.16.29-.51.91-1.08-.21-.14-.26-.33.14-.72-.41-.57.06-1.23-.18-1.71.22-.38.38-.66.71-1.25,3-3,5.27-6.54,8.13-9.4v-1.67c.28-.29.47-.49.66-.69h.85c2.27-2.27,4.7-4.3,6.95-6.53,0-.15,0-.29,0-.43,1.77-1.77,3.69-3.28,5.47-5.02.11-.66-.52-.81-.83-1.51.05-.76.4-1.28.46-2.03.22-.03.41-.06.57-.08.37.3.16.68.22,1-.16.21-.31.42-.42.56-.02.53.4.64.54.86.47-.47.95-.95,1.45-1.45-.18-.19-.45-.48-.72-.77v-1.26c.26-.26.5-.5.81-.81.01-.21.03-.48.04-.83.09-.11.23-.29.4-.5-.06-1.14-.11-1.95-.17-3.09-.08-.08-.15-.15-.23-.23v-1.7c.26-.27.54-.57.82-.86v-2.53l-.68-.68c-.31.68-.05,1.38-.18,1.98-.53.44-1.4.87-1.93.97-.13-.18-.18-.37-.16-.58.55-.28,1.11-.56,1.68-.85-.58-.58-1.13-1.13-1.66-1.66-.08-.29.85-1.66,1.02-1.9.15.13.3.27.45.4.35-.26.12-.65.23-.97-.15-.17-.28-.32-.44-.5v-.89c-.35-.24-.72-.49-1.1-.75-.02.03-.04.05-.06.08-.6-.6-1.19-1.19-1.79-1.79,0-.14-.01-.27-.02-.41-.23-.4-.62-.18-.83-.22-.73.73-1.42,1.42-1.94,1.94-.47.1-.66.15-.91.2-.04.16-.09.35-.16.61-.23.25-.52.55-.81.85v.83c-.56.3-.34.85-.42,1.14-.26.32-.43.53-.6.75-.14-.14-.24-.24-.34-.34-.49-.19-1.94,2.12-2.15,2.42-.23.01-.37.02-.51.03-.79.79-1.59,1.59-2.38,2.38-2.18.25-4.76,1.8-6.62,2.82-.03.49-.05.96-.08,1.47h-1.06c-.83-1.48-.86-1.17-2.07-.37h-1.66c-.16.15-.31.29-.46.42-.37,0-.72,0-1.07,0-.46.24-.93.48-1.55.81h-2.41c-.13-.12-.33-.31-.6-.55v-1.67c-.28-.3-.47-.5-.66-.71-.8.01-.97.62-1.18,1.21-.29-.1-.52-.29-.68-.55.36-.36.7-.7,1.02-1.02.22-.05.41-.1.61-.15v-2.19c-.53-1.04-1.98-1.13-2.53-2.29.06-.14.13-.31.21-.5l.79.79c.31.02.37-.32.58-.43.35-.48.13-2.17.13-2.66l-1.24-1.24v-1.27c.1-.12.24-.27.38-.43-.13-.14-.27-.29-.41-.44v-7.15c-.53-.53-.12-.89-.46-1.44.34-.65.64-1.23.92-1.77-.19-.27-.34-.49-.52-.75.28-.66.94-1,1.31-1.53v-1.66c-.16-.19-.29-.34-.4-.47v-1.15c.1-.12.22-.28.39-.49v-.88c.28-.2.62-.45.87-.63v-1.4c.15-.16.29-.31.43-.47v-.46c.24-.08.48-.17.73-.25.36-.49.4-1.08.11-1.77-.18-.21-.31-.36-.42-.5v-.67c.27-.82,2.41-3.05,3.06-3.62-.18-.27-.32-.49-.52-.78v-1.42c.49-.4,1.13-.92,1.66-1.35.06-.81-.54-.96-.81-1.37v-.85c.75-.47.83-1.52,1.63-2.06v-1.42c-.25-.18-.64-.47-1.29-.94h-2.66c-.37-.37-.15-.74-.23-1.07.64-.51,1.14-1.14,1.49-1.89h.84l1.5,1.5c1.51.74,2.85,1.4,4.18,2.05v6.33c-.15.16-.29.31-.42.45.01.15.02.29.03.45.84.17,1.52.57,2.05,1.19-.12.14-.25.29-.39.45v1.7c.33.3.68.63,1.08,1,.27.02.6.04.97.07v.89c.19.46.45,1.1.65,1.56.7.7,1.49,1.49,2.29,2.29-.08.94,1.78,1.89,2.38,2.37h1.23c.92.88,1.83,1.51,2.78,2.35,1.08.96,3.07,2.07,3.97,3.12h1.75c.22.28.48.61.65.83.49.11.86-.11,1.16.19-.13.21-.26.42-.37.6.06.53,2.54,2.41,2.63,2.51.8.32,1.62.63,2.2,1.36h1.17c1.58.54,2.22,2.87,4.32,2.98.13.12.28.26.44.4h1.25c.39.78,2.91,2.24,3.8,2.11.95.95,5.45,7.04,7.49,6.75.47.7,1.09,1.15,1.87,1.35.43.43,2.39,3.48,3.32,3.32,1.6,1.6,3.42,3.38,4.76,5.19,1.26,1.7,1.81,4.6,3.43,5.95v1.16c1.86,3.2,3.36,5.82,5.05,9.09v.71c.25.23.5.47.79.74.15.87-.02,1.78.1,2.66.4.4.79.79,1.06,1.06.23.45.37.74.58,1.16v1.94c.1.11.2.21.38.4.13.65,0,1.42.05,2.05.63,1.06.87,3.08,1.67,3.88v2.92c.15.16.29.31.43.47v1.66c.14.16.29.31.43.47v3.63c.28.52.49.93.79,1.49v2.74c.14.18.27.33.43.54v1.34ZM437.44,249.86c-.26.26-.51.51-.78.78-.14,1.63-2.09,4.13-1.76,5.54-.14.16-.28.32-.4.46,0,.83-.16,2.11.05,2.96.1.1.2.2.34.34v.92c-.18.15-.18.15-.65-.25-.52-.08-.68.4-1,.63v2.49c-.51.51-1.01,1.01-1.48,1.48-.21.05-.4.1-.58.14v1.1c.38.04.71.07,1.03.1.21.2.41.4.6.59v.43c-.7.64-1.23-.19-1.86-.22,0,0-.83,2.16-1.07,2.29v2.12c-.72.36-.97.56-1.69.65-.5.5-.93.94-1.26,1.27h-.66c-.54.55-1.08,1.1-1.55,1.58-1.79.78-4.81,3.71-6.48,3.93-1.85,2.07-5.26,2.1-7.12,4.17-.56-.22-.73.68-1.29.45-1.11,1.01-4.03,1.86-4.68,2.94-1.4-.27-2.52,2.28-3.5,3.02-.22-.34-.44-.69-.58-.9-.4-.03-2.01.88-2.22,1.25-.35,0-.71,0-1.06,0-.92.43-2,1.32-3.06,1.26-.92.66-1.96,1.05-3.05,1.28-.87,1.09-2.33,1.24-3.4,2.09h-3.33c-.54.57-1.04.25-1.74.48l-.31.31h-2.21c-.09-.09-.19-.19-.37-.37h-2.11c-.17-.17-.27-.27-.4-.4h-2.06c-.17-.14-.32-.28-.5-.43h-1.25c-.13.12-.28.26-.44.41-.42.15-.59-.25-.88-.43h-.79c-.18-.15-.33-.29-.47-.41h-1.13c-.19.13-.4.27-.63.43-1.4-.55-2.16-1.46-3.25-2.49-.36-.15-.94.15-1.23-.44h-1.65c-1.03-1.1-2.92-1.19-4.1-2.28v-1.81c-.82-.82-1.66-1.66-2.53-2.53v-1.2c-.21-.21-.41-.41-.61-.61h-1.35c-.23-1.27-.65-2.03-1.6-2.88-.34-.75-.53-1.16-.76-1.67-1.17-1.17-2.42-2.42-3.67-3.67.39-1.72-3.09-4.28-4.24-4.97.15-.19.25-.33.39-.51v-1.02h-2.68c-.32-.66-.5-1.36-1.35-1.39-1.1-1.35-3.62-2.56-5.15-3.29h-1.12c-.16-.19-.34-.41-.59-.71v-.61c-.37-.92-1.57-.7-1.79-1.57-.54-.09-1.08.07-1.38-.47h-.85c-.14.13-.29.27-.44.41h-.84c-.4-.4-.8-.8-1.2-1.2-.88-.15-2.19-1.68-1.99-2.52-.82-.15-1.58,0-2.33-.11-.25-.46-.69-.39-1.23-.39-.61-.61-1.2-.84-1.87-1.44-.01-.23-.02-.5-.04-.83-.63-.72-3.04-2.35-3.98-2.35-.69-.7-1.38-1.41-1.87-1.91-.53-.27-.82-.42-1.24-.63h-2.37c-1.83-2.16-5.51-2.71-7.59-4.63h-1.53c-.36-.26-.64-.45-.93-.65.24-.42.39-.71.55-.99.11-1.55-3.79-1.15-2.95-3.55-2.13-2.44-2.56-4.7-.23-7.02h.89c.34-.75,2.38-1.9,3.22-1.71.75-.4,1.5-.8,2.36-1.26h1.95c.16-.15.31-.29.47-.43h.82c.16-.15.32-.29.44-.4h.83c.19.16.34.29.54.46.52-.27,1.04-.54,1.71-.88h6.59c.12.11.27.25.44.4h2.5c.16.15.31.29.47.43h2.93l.41.41c1.07.03,2.24,0,3.39.02.13.13.22.22.37.37h4.14c.18.14.34.26.6.48h2.9c.17.17.27.27.39.39.14-.13.29-.25.45-.39h8.82c.16-.15.31-.29.47-.43h2.51c.1-.1.2-.2.37-.37.96-.14,2,.04,3.03-.08.1-.1.2-.2.34-.34h3.71c.18-.14.34-.26.61-.48h1.64c.17-.17.27-.27.39-.39h1.66c.3-.29.6-.58.9-.86.44-.16.59.27.85.4h1.27l.36-.36h2.79c.54-.3,1-.55,1.58-.87h4.05c.16-.15.31-.28.48-.43h4.6c.16-.15.31-.29.47-.43h6.31c1.08-1.08,4.87-.42,6.28-.42.42-.33,5.32-1.44,5.94-1.26.16.15.32.29.48.43h5.87l.34.34c.3.03.63.07.95.11l.38.38h4.22c.17.17.27.27.39.39h1.03c1.4.68,2.8,1.38,4.19,2.1h1.75c.47.23.81.41,1.23.62.02.42.05.89.07,1.35.34.24.82.2,1.04.59.21,0,.42,0,.71,0,1.27.83,2.94,1.14,3.73,2.32,1.46.74,2.67,1.36,4.17,2.12.22.2.67.62,1.13,1.04,1.29-.21,4.05,3.27,4.55,3.77.14,0,.27.01.47.02.15.18.32.4.6.73,0-.18.43,2.62.34,2.74.35.37.64.67.93.98v.4c.7.7,1.4,1.4,2.1,2.1v.83c.15.16.29.31.41.44v2.11Z" class="cls-2"></path>
  <path d="M426.52,237.7v-1.96c-.2-.32-.34-.55-.45-.73q.45-.72.38-1.56c-.1-.1-.2-.2-.31-.31v-3.36c.47-.31.35-1.01.82-1.32v-2.92c-.16-.18-.29-.33-.38-.44v-2.12l.32-.32q.05-.92-.82-2.27v-2.08c-.17-.16-.27-.25-.37-.35v-3.38c-.6-.73-2.09-.72-2.11-1.75.25-.18.59-.42.84-.6v-2.27c-.13-.14-.27-.29-.42-.45v-.75c-.52-.55-1-1.06-1.26-1.33-.75-.36-1.22-.59-1.64-.8-1.91-1.91-3.74-3.67-6.1-5-2.16-1.22-5.39-1.94-7.22-3.67-.62.06-1.03-.72-1.7-.45-.16-.14-.31-.28-.47-.42h-1.24c-.32-.72-1.27-.07-1.59-.77-.47-.04-.94-.07-1.37-.1l-.36-.36h-1.22c-.23-.18-.44-.34-.71-.55-.24.2-.44.37-.63.52h-1.56c-.56-.31-1.02-.57-1.42-.8h-1.95c-.38.21-.61.34-.76.42l-.88-.88h-2.13c-.85-.45-1.6-.85-2.45-1.3h-1.51l-.41-.41h-2.12c-.32-.32-.56-.57-.81-.82h-2.06c-.24.18-.45.34-.63.47-.76-.29-1.01-1.07-1.74-1.34-.31.22-.65.39-1.02.5-.66-.99-1.83-1.11-2.62-1.71-1.03-.04-2-.08-2.97-.12-.33-.71-2.03-.35-2.46-1.19h-5.46c-.16-.15-.32-.29-.48-.43h-3.76l-.39-.39h-2.11l-.45-.45h-5.9l-.44-.44c-.68.27-1.08-.13-1.65.44h-2.53c-.15-.14-.3-.28-.44-.41h-6.3c-.17.15-.32.29-.48.43h-2.05c-.19.16-.35.29-.44.37h-1.3c-.2-.31-.62-.42-.59-.85.33-.64.65-1.28,1.06-2.08.61-.61,1.35-1.35,2.1-2.1h.42c.57-.7,1.36-1.04,2.18-1.34.6-.6,1.19-1.19,1.78-1.78.04-.2.09-.4.12-.57.23-.06.42-.11.61-.16.57-.57,2.86-2.63,2.69-3.53l1.78-1.78c.95-.21,1.36-1.08,1.95-1.53.87-2.01,1.83-3.1,3.4-4.66.03-.46.05-.94.08-1.34l.37-.37v-1.24c.29-.31.58-.61.87-.91v-.83c.54-.34.43-.82.35-1.27-.14-.18-.27-.34-.42-.52.28-.54.55-1.06.88-1.7v-1.8c.48-.44,1.09-1,1.74-1.6v-2.83c.14-.14.24-.24.38-.38.02-1.03-.01-2.07-.1-3.1-.25-.23-.51-.46-.75-.68v-5.08c-.3-.3-1.85-3.99-1.68-4.59-.48-.32-.35-1.02-.84-1.34.28-.73-1.35-3.99-1.85-4.7-.25-.35-1.63-1-1.74-1.27-.31-.85.42-.93.16-1.67-.21-.16-.53-.42-.79-.62v-1.4q-1.63-1.63-2.04-2.75c-.91-.91-1.7-1.7-2.49-2.5-.16-.05-.34-.12-.52-.18v-.46c-.29-.31-.58-.61-.87-.92v-1.66l-4.19-4.19v-.44c-.7-.68-1.39-1.37-2.08-2.07.05-.39-1.47-2.32-1.5-2.34h-.88c-.8-.89-1.01-2.15-2.03-2.92-1.35.1-3.74-3.3-4.55-4.11-.84-1.46-1.2-2.06-2.43-3.29.18-.8-1.26-2.1-1.7-2.54v-1.26c-.13-.13-2.46-2.02-2.46-2.06.18-.32.3-.54.41-.75-3.11-4.21-7.62-6.44-11.24-10.05-.8.14-.94-1.02-1.74-.9-.54-.55-1.09-1.1-1.44-1.46-1.62-.76-2.71-1.5-4.04-2.7-.59.21-1.44-1.06-2.11-.91-.29-.66-1.09-.09-1.44-.6-2.08-1.04-4.16-2.07-6.23-3.13h-.91c-.74-.36-2.36-1.44-3.24-1.34-.34-.66-1.27-.05-1.59-.76h-1.44c-.31-.4-.7-.89-.99-1.25h-1.85c-.66,1.04-2.53-.17-3.25-.5-.21.19-.36.33-.46.43-.53-.28-1.05-.56-1.62-.86-.36.33-.71.64-1,.9-.53.02-.95.04-1.22-.43-.73.06-1.49-.04-2.21.05-.11.34-.2.58-.27.8h-6.24c-.63-.33-1.15-.6-1.66-.87-.26.17-.48.31-.64.41h-1.64c-.2-.15-.34-.25-.46-.34l-.37.37h-1.16c-.52.3-.98.56-1.51.87h-2.84c-.34.62-3.5,1.45-4.14,1.74-.06-.07-.12-.15-.18-.22-.4.45-.8.9-1.2,1.35-.1-.1-.2-.2-.33-.33-.14.12-.28.23-.46.38h-1.2c-.39.59-1.51.86-2.12.86-.4.38-.75.72-1.1,1.05v.43c-1.26.96-2.71,1.68-3.53,3.13h-1.15c-.85.85-1.64,1.64-2.49,2.49v.34c-.18.06-.36.12-.52.17-1.49,1.49-2.98,2.98-4.53,4.53,0,.01,0,.15,0,.29-.74.66-1.39.97-2.16,1.74v1.61c-.48.31-.87.57-1.21.79v.92c.15.16.29.31.45.49-.14.3.14.69-.23.98h-.68l-2.95,2.95v1.5c-.31.46-.79.56-1.22.8v.82c-.29.31-.58.61-.86.91.16.44-.28.59-.44.92v1.45c-.52,1.03-.96,1.9-1.48,2.91-1.8,1.8-4.02,3.51-4.5,6.19-1.07,1.07-2.85,4.18-2.85,5.78-.14.15-.28.3-.42.45v.82c-.15.16-.29.31-.43.47v1.51c-.46.88-.85,1.64-1.25,2.4v2.75c-.12.14-.26.29-.41.46v.81c-.15.16-.29.31-.43.47v1.66c-.15.16-.29.31-.43.48v1.44c-.25.16-.6.39-.87.57v2.05c-.44.87-.8,1.57-1.23,2.4v3.18c-.15.17-.29.32-.43.48v2.34c-.26.5-.44.85-.63,1.22-.19-.04-.38-.08-.56-.12-.05-.39-.08-.73-.12-1.08-.53-.27-1.2-1.37-1.2-1.98.16-.18.3-.33.4-.45v-1.19c.04.07-1.03-2.46-1.23-2.56v-1.23c-.87-.95-1.12-2.35-2.03-3.3-.76-.79-1.84-1.08-2.61-1.87-.01-.7.34-1.2.41-1.88-.24-.45-.37-.68-.46-.84.46-1.14,1.12.16-.04-1.58-.55-.14-.94.13-1.15-.3.26-.39.86-.53.81-1.25-1.23-1.1-1.81-2.23-2.99-3.4v-2.12c-.51-.38-.39-1.18-1.09-1.35q-.5.4-.93.11c.13-.15.26-.31.4-.47-.08-.75-.46-2.06-1.28-2.4v-1.08c-.37-.32-.84-.73-1.3-1.14v-2.7c-.77-.77-1.61-1.61-2.52-2.52.12-.2.28-.48.4-.67v-1.26c-1.23-1.23-2.06-3.32-2.06-5.02-.26-.25-.45-.43-.74-.69-.07.49-.13.87-.2,1.34-.77.29-1.44.22-2.01-.21,1.09-.57.96-1.35,2.47-2.05v-1.42c-1.59-.19-4.45-4.67-4.2-6.25-.59-.51-1.26-2.14-1.39-2.91-.51-.51-1.2-1.2-1.95-1.95v-.64c-.25-.19-.59-.45-.84-.64,0-2.09-3.11-4-2.97-5.65-5.01-5.01-9.44-10.06-15.04-14.1h-.84c-1.03-2.02-3.32-1.31-4.53-2.52h-1.67c-.61-1.16-3.29-1.13-3.77-2.08-1.04-.11-2.08.06-3.03-.07l-.38-.38h-2.95c-.15.14-.3.28-.45.41-.44.16-.59-.29-.93-.44h-1.18c-.12-.12-.22-.22-.39-.39h-5.43c-.27-.21-.43-.33-.61-.47h-10.88l-.42-.42h-1.69c-.17-.17-.27-.27-.37-.37h-10.84c-.84.45-1.59.85-2.44,1.3h-1.91c-.68.57-1.43.79-2.22.93-.1.1-.2.2-.31.31h-1.26c-.45.45-4.24,2.87-5.06,2.53-.56.56-1.11,1.11-1.67,1.67h-1.06c-1.07.53-3.2,1.26-3.84,2.38-1.87.48-3.73,3.3-5.04,4.55.37,1.51-2.33,2.4-3.11,3.18-.43.03-.7.04-.94.06-.52.7-1.36,1.07-1.51,1.97-.65.65-1.29,1.29-1.9,1.9-.21.46-.39.88-.66,1.48-.92.54-1.17,1.92-2.25,2.64h-.86c0,.44-.19.79-.54,1.05v1.25c-.94.78-2.11,2.87-2.53,4.01,0,.21,0,.42,0,.62-.15.16-.29.31-.43.47v1.96c-.32.57-.57,1.03-.87,1.56v1.54c-.14.14-.24.24-.38.38,0,1.22-1.01,2.97-1.71,3.91v1.01c-.44.86-.8,1.56-1.24,2.4,0,2.07-.55,5.23.14,7.18.08.07.19.16.28.25v5.64c.25.19.59.44.87.65v1.75c.13.13.23.23.4.4v5.9c.17.17.27.27.39.39v1.23c.15.16.28.32.43.48v.81c.15.16.29.31.43.47v.81c.15.17.29.32.42.46-.17,1.09,1.01,1.76.84,2.83.57.65.67,1.58,1.27,2.22v2.52c.28.65.7,1.21,1.26,1.66v2.3c.49.99.92,1.87,1.45,2.94.3.3,1.73,2.43,2.25,2.7,2.19,4.42,3.19,8.64,6.89,12.34.45.19.63.27.79.34v.86c.36.43,1.42,2.31,1.26,2.88.42.46.84.92,1.27,1.4v.38c.9.9,1.8,1.8,2.69,2.69.19.04.38.08.57.12.05.22.1.41.05.21.67.8,1.12,1.33,1.48,1.75,1,.27,1.5-.58,2.32-.67v.9c-.18.29-.31.52-.42.69.42.78,1,1.4.89,2.27.44.54,1,1.93,1.92,1.93,2.89,3.59,6.87,6.22,9.47,10.05-.08.73-1.68,1.95-2.12,2.38v.47c.17.06.35.13.56.21.58-.62,1.15-1.23,1.55-1.66.43-.1,1.6.36,1.96.41.88.88,3.32,4.05,4.96,3.74,1.13,1.1,2.24,2.03,3.53,2.95h1.73c1.06,1.06,2.19,2.19,3.37,3.37.8,0,5.55,2.23,6.1,2.89.71-.16,1.51,1.12,2.18.88,1.21,1.25,2.33,1.63,3.77,2.55.56-.23.73.67,1.29.45.28.46,2.32,1.49,2.59,1.65h3.8c.97,1.1,2.22,1.56,3.28,2.53h2.53c.13-.12.28-.27.44-.41.46.06.96-.15,1.42.15.04.33.08.66.11.98.22.21.42.39.57.53h.8c.28-.24.49-.42.67-.57.09-.38-.14-.76.28-1.13.23.33.46.66.63.89h.86c-.15-.08,2.42.99,2.46,1.05.41.85.33,1.48-.25,1.9-1.85,0-2.12,1.24-3.65,1.7-.19-.13-.4-.29-.65-.46-1.8.18-3.2,2.06-4.99,2.17-.64,1.36-6.26,3.01-7.72,3.75-.35,0-.7,0-1.07,0-.14.13-.3.27-.45.42h-1.67c-.08.17-2.38,1.83-2.28,1.73-.11.55.1.93-.25,1.21-.29-.28-.59-.56-.88-.83-1.13,0-1.73.59-2.61,1.29h-2.95c.05.07.1.15.15.22-.24.11-.49.22-.73.33.22.22.32.32.52.52-.24.21-.48.42-.69.61h-.87c-.59.74-1.39,1.06-2.6,1.52-.26.26-.8.8-1.4,1.4h-.8c-1.44.71-3.92,2.84-5.39,3.07-1.3,1.85-4.69,3.75-6.52,5.25-1.15.94-4.44,5-5.95,4.75-.46.42-.91.85-1.23,1.14-4.88,2.42-7.62,7.36-12.05,10.39-.15,1.61-3.43,3.46-3.43,4.88-.73.8-1.34,1.47-1.95,2.14-1.5.21-4.08,5.5-5.05,6.81-1.2,1.62-1.96,3.16-2.78,4.87-1.14,1.14-4.22,3.87-3.73,5.83-.63.54-.56,1.49-1.19,2.04.14.69-1.16,1.47-.9,2.16-.78.37-.86,2.06-1.3,2.69v2.68c-.45.86-.81,1.56-1.23,2.37v.99c-.45.85-.85,1.6-1.3,2.46v1.36c-.3.56-.51.97-.79,1.5v2.45c-.59.18-.35.95-.88,1.28.47.95.43,1.68-.14,2.21-.21.04-.4.09-.66.14v3.51c-.51.25-1.81,3.2-2.11,3.79v2.93c.14.17.26.32.38.46-.28.28-.53.53-.78.78-.03.33-.06.66-.09.93-.16.16-.26.26-.36.36v.84c.13.15.27.3.41.45.16.44-.28.59-.4.84v8.92c.8.23.04,1.23.76,1.54.04.47.07.94.11,1.37l.42.42v1.69c.17.17.27.27.38.38v2.94c.15.16.29.31.43.47v1.1c.39.76.72,1.4,1.03,2,.22.05.41.09.6.13v1.79c-.18.25-.3.41-.38.52v.91c.38.3.87.69,1.17.93-.02-.06-.19,2.23-.26,2.75.15.2.27.35.35.46v1.99c.12.14.25.29.41.47v.78c.31.5.79.73,1.29.94v3.77c1.39,1.39,2.86,2.61,3.78,4.35v1.22c1.63.91,2.1,1.35,1.42,1.34.5.04.76.06,1.05.08.2.64-.04,1.1-.31,1.49v1.36c.54.51,1.1,1.04,1.63,1.53.36,1.18,1.49,3.03,2.86,3.26.88,1.26,1.71,1.94,3.06,2.67-.11.53.38.69.62,1.01.61.06,1.24-.05,1.91.07v1.85c.27.26.47.45.69.66.79-.23,1.34.6,2.15.45.51.97,2.4,2.02,3.22,2.84.99.15,2.87,1.77,3.85,1.33.17.15.33.29.49.44h1.48c1.44.73,2.72,1.38,4.14,2.1h.98c.45.27,3.59,1.18,3.86,1.66h1.25c.16.15.31.29.47.43h.83c.16.15.31.29.47.43h.8c.18.16.33.29.5.43h6.67c.19.15.32.26.46.36.14-.14.24-.24.36-.36h1.7c.11.1.27.24.44.39h.83c.14-.13.29-.27.44-.41h5.46c.16-.15.31-.29.46-.42.89.11,1.5-.47,2.27-.88h2.24c.56-.3.97-.52,1.5-.8.32.11.81-.17,1.32.16.05.06.14.16.22.25h2.96c.16-.15.32-.29.48-.43h.79c.19-.16.34-.29.44-.37h3.81c.13.13.23.23.35.35h4.28c.66-.43.59-1.31,1.28-1.65h1.17c.21-.32.56-.85.86-1.3h2.88c.87-.45,1.57-.8,2.41-1.23h.86c1.24-.48,1.97-1.45,3.13-1.68.15.14.3.28.46.42h2.31c.67-.63,1.41-.91,2.24-.82.33.2.55.34.73.45.4-.15.55-.59,1.03-.45.11.09.26.23.44.38h1.24c.68-.48.86-1.28,1.34-2.34.29-.29.83-.83,1.45-1.45v-.55c.25-.31.43-.53.58-.72h1.73c.88-1.2,2.67-.96,2.75-2.74.86-1.13,2.79-1,3.52-2.3h.89c.5-.75,1.52-.89,2.04-1.63,1.07-.16,1.41-1.26,2.26-1.77h.77c1.19-1.19,2.02-.75,2.93-1.66h.84c1.43-1.43,2.86-2.86,4.19-4.19.44-.03.71-.05.9-.06,4.58-4.58,9.68-8.4,14.21-12.95.54-.16,1.04-.39,1.52-.69,1.61-2.26,3.8-4.21,5.75-6.16.37.02.64.04.86.05,1.46,1.46,2.52,2.92,3.72,4.6.54.08,1.04-.16,1.55.23v1.58c.46.8.61,1.62,1.54,1.68,1.12,1.29,1.65,2.83,2.69,4.16.57.72,2.18,1.59,2.49,2.34v1.2c.15.17.29.32.43.49v.78c1.07,1.08,2.11,2.13,3.15,3.17h1.17c.23.32.6.83.89,1.24.43.02.7.04,1,.05,1.57,2.62,4.02,4.42,6.46,6.14.86.6,3.88,3.3,4.82,3.12,2.13,2.91,6.28,4.17,8.74,6.64,1.24.42,2.58,1.38,3.94,1.41,1.78,1.09,3.74,1.84,5.47,2.84h7.45c.57-.3.97-.52,1.48-.79h1.97c.15.14.3.28.46.43h1.65c.17.15.33.29.45.39.27.1,3.77-.44,3.85-.48.1-.1.2-.2.32-.32h1.22c.17-.15.32-.28.48-.42.32-.02.65-.04.88-.05.19-.19.29-.29.39-.39.28,0,.56,0,.73,0,.54-.31,1-.57,1.52-.87h1.14c1.12-1.12,10.93-6.72,12.99-5.88.51-.83,2.28-.47,2.64-1.26,1.15.23,3.51-1.76,4.33-2.27.05-.2.09-.39.15-.65.82.06,1.07-.7,1.6-1.11v-1.19c.38-.41.71-.77,1.03-1.12h1.11c.45-.21.74-.36,1.14-.55.43-.43,2.14-1.24,2.55-1.7.04-.33.08-.66.12-1.03.2-.04.39-.08.61-.13l.58-.58v-1.25c.43-.68,1.17-1.56,1.65-2.19.28-1.8,1.83-4.19,2.99-5.59v-1.25c.38-.3.87-.69,1.24-.98v-2.28c-.25-.12-1.26-2.68-1.24-2.66v-1.06c.34-.28.5-.9,1.15-.57.23.31.08.66.09.92-.18.26-.32.48-.57.85.33.21.61.4.91.59.07-.06.56-1.71.53-1.79,1.94-1.81,2.18-5.01,3.82-6.85v-2.9l1.23-1.23v-.41c.15-.16.29-.31.43-.47v-2.09c.55-.55,1.1-1.1,1.66-1.66v-1.15c.31-.53.57-.98.87-1.5v-1.58c.15-.17.29-.33.39-.44v-2.14c-.58-.32-1.72-.88-1.66-1.64.62-.25,1.17-.61,1.66-1.07v-1.03c-.16-.2-.29-.36-.43-.53v-8.79c-.14-.14-.24-.24-.41-.41v-3.37c-.17-.17-.27-.27-.38-.38-.02-.61-.04-1.22.02-1.87h3.59c.12.12.22.22.35.35.44.02.91.04,1.32.06.16.16.26.26.43.43h1.59c.57.32.97.54,1.44.81h2.4c.17.15.32.29.49.43h3.33c.12.12.22.22.39.39h2.06c.27.21.43.34.49.38h9.31c.15-.15.25-.25.36-.36h2.5c.16-.15.31-.29.47-.43h.82c.16-.15.31-.29.47-.43h1.98c.11-.19.31-.56.49-.87h2.02c.86-.45,1.56-.81,2.37-1.23h1.12c.16-.15.31-.29.47-.43h.82c1.59-1.59,4.35-2.61,6.42-3.47l1.31-1.31c.05-.19.1-.38.15-.57.06.06.12.12.18.18.26-.42.52-.84.73-1.18h2.18c1.13-.84,2.32-1.63,3.46-2.49.72.19,1.21-.69,1.94-.42.44-.6,1.52-.73,2.16-.86.16-.15.32-.28.48-.43h3.33c.12-.12.22-.22.39-.39h1.46c1.96-.98,3.65-1.82,5.48-2.73.48-.48,1.07-1.07,1.71-1.71,0-.97-.1-1.62.63-2.28,4.46-.56,11.56-11.06,13.4-15.11-.04-.04-.08-.08-.13-.12.69-.69,1.38-1.38,2.17-2.16v-1.44c.69-.69,1.33-1.33,1.98-1.98.36-1.38,1.31-3.29,2.21-4.39v-2.9c.59-.29.3-.87.46-1.29l.78-.78c0-2.74-.67-6.92.16-9.51.19-.16.45-.39.68-.58v-1.71c-.15-.17-.29-.33-.43-.49ZM157.17,193.12c-1.19-1.32-9.24-7.29-10.68-6.99-.54-.72-2.02-.98-2.76-1.46-1.85-1.23-3.55-2.8-5.19-4.3-1.64-.75-2.64-1.82-3.9-3.09h-1.13c-.98-.38-1.08-1.52-1.83-2.11-.14,0-.28,0-.43,0-.84-.84-1.68-1.69-2.52-2.53h-.47c-.08-.23-.16-.48-.26-.77-.17-.04-.36-.08-.6-.13-1.07-1.37-2.97-2.57-4.25-3.85-.48-1.24-1.44-3.08-2.93-3.35-.71-.82-3.44-3.74-3.57-4.84-.46-.33-1.79-1.89-2.54-1.31-.27-.25-.47-.43-.71-.66v-1.12c-.66-.63-1.27-1.19-1.74-1.63v-.69c-1.19-1.19-2.54-2.56-3.5-3.93-.64-.91-3.66-4.56-3.66-5.31-1.06-1.29-1.96-1.97-2.68-3.5-1.13-1.27-1.83-2.33-2.55-3.87-2.79-2.77-4.67-5.92-7.42-8.67v-1.24c-.15-.16-.29-.31-.43-.46v-.82c-.15-.16-.29-.31-.43-.47v-1.24c-.26-.26-.51-.51-.79-.79v-1.52c-.45-.84-.85-1.59-1.3-2.44v-4.08c-.1-.1-.2-.2-.3-.3-.77-2.41-.12-6.42-.12-8.97.76-.76.09-1.26-.02-2.16.26-.18.6-.43.85-.6v-2.26c.15-.16.29-.31.43-.46v-1.25c.35-.41.89-.68.9-1.32,1.64-2.38,2.29-5.13,3.86-7.57,2.35-3.67,4.71-5.29,8.11-7.76,1.08.25,2.72-2.13,4.02-1.65v-1.51c.23-.24.42-.44.6-.63h.44c.3.66.07,1.28-.67,1.86.57.48,1.04.37,1.47-.16h1.22c.33-.22,1.27-.91,1.71-.84.11.08.32.24.55.42h6.27l.36.36h1.6c.18.14.34.26.51.4q1.32.09,2.56.9h1.67c.19-.5.43-.96.91-1.26.45-.06,3.03,1.86,3.54,2.11.46-.08.64-.51,1.02-.8h1.34c.63.63,1.36,1.36,1.8,1.8.59.31.82.43,1.26.66,2.71.22,4.85,1.78,7.24,3,.47.24,5.41,3.44,6.09,3.35.34.67,3.18,2.36,3.89,2.62.46.46,1,1,1.55,1.55.8-.12.93,1.03,1.74.89,1.62,1.62,2.84,3.34,4.84,4.45,0,.14.01.28.02.47.17.05.36.11.84.27,1.56,1.68,2.56,3.5,4.2,5.14-.46,1.19,2.54,3.41,2.95,3.8v.51l2.87,2.87c.53,1.26,1.13,2.35,2.47,2.8-.02-.04,1.67,1.44,2.23,1.88v.78c-.11.12-.24.27-.4.45,0,1.41,1.89,2.29,2.72,3.13.2-.16.34-.27.47-.38.32.34.09.71.19,1.04.25.25.5.5.79.79v1.94c.44,1.02.89,2.06,1.37,3.08-.2.22-.34.37-.48.52-.27.86,2.12,3.37,2.54,3.8v2.33c1.57,3.13,3.06,6.09,4.63,9.22v1.06c.15.16.29.31.41.43.32,1.24.75,3.22,1.68,4.19.04.47-.08.99.45,1.29-.14.86,1.11,1.97.84,2.81.4.75.79,1.5,1.25,2.38v1.52c.15.16.29.31.43.46v.83c.15.16.29.31.43.47v.82c.11.11.21.21.39.39v1.69c.57.57,1.22,2.38,1.41,3.1.44.29.26.75.3,1.13.15.16.29.31.43.47v.8c.16.18.29.33.43.5v2.48c.16.16.99,1.53,1.22,1.64-.21.56.67.73.45,1.29.29.29.59.59.93.93-.14.25-.27.48-.41.74.25.5,1.39,2.16,1.17,2.96.14.16.28.31.43.47v2.08c.26.26.51.51.76.76.36,1,.2,1.08.9,2.26v1.14c.15.16.29.31.43.47v.83c.1.1.2.2.38.38v1.69c.32.32.57.57.82.82.15.42-.12,1,.46,1.29v1.22c.57.69.73,1.57,1.3,2.26v2.05c.12.12.22.22.36.36v1.09c.64,1.18.61,1.47,1.72,1.82v.92c-.13.14-.27.3-.41.44v1.26c.35.35.7.7,1.05,1.05.28,0,.56,0,.84,0,.5.7.57,1.53.21,2.48h-1.4c-.25.22-.4.35-.51.45h-5.07c-.12-.12-.22-.22-.4-.4h-2.95c-.17-.17-.27-.27-.38-.37h-3.05c-.15.15-.25.25-.36.36h-1.27c-.28-.26-.58-.55-.88-.84h-4.19c-.26-.26-.51-.51-.83-.83h-2.53c-.17-.17-.27-.27-.37-.37-.62-.08-1.7.17-2.13-.45-.67.24-1.09-.49-1.71-.45-.3-.51-.99-.4-1.34-.84-.96.2-4.48-1.29-5.02-2.11-1.7,0-1.97-.45-3.4-1.67h-2.07c-.89-1.91-4.71-1.42-5.4-3.42-.84.33-1.31-.58-2.03-.38-.62-.61-1.41-.38-2.21-.43-.16-.15-.36-.33-.6-.55-.03-.3-.07-.63-.1-.97-.28-.33-.67-.05-1.24-.33ZM219.53,227.7c-.54.1-1.05.03-1.55-.22-.03.19-.07.43-.12.76.44.03.77.05,1.11.07.37.42.1.93.18,1.4-.64.99-3.46,3.49-4.23,4.2v.91c-.41.41-.8.8-1.23,1.23v1.64c-.14.17-.28.32-.43.5v1.19c-.18.31-.59.47-.43.92-.78.58-1.33,1.33-1.67,2.23v1.16c-.28.22-.61.48-.87.68v1.4c-.26.21-.43.54-.87.69-.11-.08-.24-.17-.36-.26-.18.33-.39.67-.65,1.06-.71,1.04-1.34,2.12-1.93,3.22v.78c-.26.26-.51.51-.76.76-.16.34-.32.68-.47,1.02v1.64c.25.18.6.42.82.57v1.05c-.44.47-.73.13-1.02-.18-.61.64-.24,3.65-.24,4.32.09.12.21.28.36.46.07.74-.24,1.47-.4,2.21-.29.23-.67.53-1.21.95h-.17c.42,1.18.28,2.58,0,4.6-.14.99-.34,2.1-.45,3.22.06.05.14.11.19.15v2.41c.18.81.37,1.61.61,2.4.19.63.17,1.35,0,2.13.31-.17.64-.3.91-.52.32.28.1.66.17.99-.14.15-.28.3-.42.45v.83c.14.15.27.3.44.48-.28.1-.52.19-.84.3v5.11c-.17.17-.27.27-.41.41v10.98c.07.08.2.24.36.44v.86c.25.17.53.37.75.52.07.33.11.52.15.75.11.12.25.27.4.43v.8c.16.18.29.33.41.47v1.93c.25.46.5.92.82,1.51v2.63c.48.9.91,1.83,1.29,2.78-.38,1.29,1.82,3.05,1.22,4.48.32.52.55,1.03.94,1.51-.22.44-.39.79-.63,1.29-.32.32-.77.77-1.22,1.22-.94.42-1.88.93-2.75,1.47-.06.21-.11.4-.15.59-.45.45-.89.89-1.38,1.38-.13-.11-.27-.22-.46-.36h-.8c-.39.31-.89.6-.73,1.24-.3,0-.44,0-.58,0-.55.55-1.09,1.09-1.64,1.64-2.02.23-2.67,1.41-3.82,2.55-.23,0-.5.02-.88.04-1.35,1.34-1.62,1.82-3.51,2.63-.46.48-1,1.03-1.54,1.58-.45-.16-.6.27-.93.43h-.78c-.98.64-1.87,1.39-2.67,2.25-.02.13-.03.27-.05.42-1.11.69-2.13,1.34-3.3,1.94h-.63c-2.66,2.38-5.7,4.37-8.21,6.88-.03.15-.08.34-.12.55-.46.22-.93.44-1.62.77-1.05,1.05-9.04,9.8-11.11,9.09-.69.3-.88,1.3-1.79,1.28-.55.55-1.09,1.09-1.53,1.53-1.82.83-3.36,2.22-5.35,2.73-1.17,1.28-2.98,2.39-4.63,3.03-.32.59-1.15-.06-1.44.6-1.9.69-3.66,2.21-5.63,2.68-.3.5-1.93.74-2.49,1.2h-2.06c-.16.15-.31.29-.46.43h-2.94c-1.05-1.05-3.71-.42-5.06-.42-.13-.13-.23-.23-.4-.4h-3.37c-.17-.17-.27-.27-.45-.45h-4.22c-.17-.17-.27-.27-.4-.4h-9.56c-.37-.21-2.15-.93-2.46-1.5v-.76c-.46-.76-1.44-.82-1.89-1.53-1.15.35-3.28-2.44-3.79-2.97h-.83c-1.74-1.1-3.22-2.75-4.66-4.19h-1.17c-.73-.73-1.42-1.43-2.06-2.06-.44-.05-.77-.09-1.17-.14-.02-.28-.04-.54-.06-.87.1-.13.21-.29.39-.54v-2.91c-2.05-3.11-2.2-6.07-5.01-8.89.31-.31.56-.56.82-.82v-3.38c-.11-.12-.25-.27-.4-.44v-.81c-.15-.16-.29-.31-.43-.47v-.81c-.15-.17-.29-.32-.43-.48v-2.92c-.27-.27-.51-.51-.84-.84v-1.69c-.17-.17-.27-.27-.39-.39v-2.5c-.15-.16-.28-.31-.43-.48v-2.09c.09-.09.18-.2.4-.42.08-.47-.02-1.1.03-1.71.1-.1.2-.2.37-.37.13-.96-.04-2,.05-2.85.29-.56.51-.96.8-1.52v-1.02c.18-.26.33-.47.54-.76-.16-.22-.31-.43-.5-.69v-.69c1.03-1.86.84-3.27.84-5.5.61-.87.64-1.85,1.25-2.64v-2.46c.15-.16.29-.31.43-.48v-.83c-.14-.15-.28-.3-.41-.44v-.85c.22-.12,1.25-2.59,1.23-2.55v-3.32c-.09-.1-.22-.26-.38-.44v-3.59c.81-1.67,1.64-3.32,2.5-4.96v-2.39c-.12-.13-.26-.28-.41-.44.2-.19.4-.38.6-.57.19.13.4.27.55.37q.36,0,1.02-.85c-.13-.19-.28-.41-.43-.63,1.08-1.34,5.73-10.57,5.43-11.8.82-.82,1.3-1.64,2.09-2.52v-.82c.96-.33,1.48-1.15,2.12-1.71v-.85c.58-.58,1.83-2.32,2.77-2.32.93-1.31,2.6-3.73,3.84-4.72.21-.95,1.08-1.37,1.58-2.03,2.16,0,5.73-4.11,7.4-5.69,0-.42,0-.84,0-1.27.76-.53,1.64-.6,2.65-.21.32-.09.44-.58.91-.41.13.12.28.25.41.37.46-.26.91-.52,1.4-.8.3,0,.65,0,1.01,0,1.01-.56,2.19-.97,3.1-1.68.49.02.98.05,1.3-.43.36.13,1.54-.7,1.76-.84.35,0,.7,0,1.05,0,2.54-1.66,4.91-2.27,7.07-4.42-.29-.14-.56-.27-.83-.4v-.48c.15-.06.33-.14.63-.27.23.33.47.67.66.95.83-.26,2.29-1.54,3.18-1.33.32-.54,3.38-1.55,3.99-1.62.44-.23.73-.38,1.2-.62,2.13-2.13,3.98-4.4,6.12-6.55h1.15c.53-.3.98-.57,1.51-.87h1.58c.11-.11.21-.21.37-.37.4-.02.87-.05,1.34-.08.25-.25.5-.5.75-.75.78.15,1.33-.67,2.13-.48.15-.13.3-.27.46-.42h3.35c.16-.15.31-.29.47-.43h.82c.11-.11.21-.21.36-.36.39-.06.78-.07,1.17-.06-.2.14,2.54-1.08,2.58-1.25h1.74c.16-.15.31-.29.47-.43h1.68c.24-.25.48-.5.7-.73.98-.11,1.95-.14,2.93-.11.52-.28,1.03-.56,1.64-.89.18.12.39.26.71.47.65,0,1.71-.31,2.1-.93,1.42.73,2.61,1.41,4.13,1.79.13.12.28.26.44.4h.82c.16.15.31.29.47.43h.82c.51.51,1.33.22,1.78.83h2.31c.46.26.92.51,1.49.83h4.91c.16.15.31.29.47.43h1.68c.1.1.19.2.36.37h2.51c.25.22.4.35.59.52,1.32-.62,1.54-.44,2.96.36h2.81c.16.15.31.29.46.43h4.21c1.45,1.47,1.3.21,2.77,1.04-.03-.03.19.23.4.49-.01.14-.03.28-.04.42ZM232.64,147.04c0-1.16.39-2.07.89-3.12-.12-.17-.28-.38-.5-.67-.12-.33.27-.5.44-.76v-.82c-.15-.17-.29-.33-.39-.45-.07-.19.4-1.37.4-1.61-.1-.13-.23-.28-.4-.49v-1.25c.09-.11.23-.26.38-.44v-5.44c.15-.16.29-.31.43-.47v-1.25c-.14-.15-.28-.3-.42-.45v-.73c-.07-.1-.19-.26-.37-.52v-.88c.1-.1.2-.2.33-.33v-1.62c.14-.17.27-.33.43-.53v-1.19c.15-.17.28-.32.43-.5v-1.22c.15-.16.29-.31.43-.47,0-.27,0-.55,0-.83.1-.1.2-.2.37-.37v-1.27c.32-.32.57-.57.87-.87.01-.22.02-.49.04-.79.81-1.92,2.39-5.31,3.79-6.84v-1.25c.95-.95,1.89-1.89,2.83-2.83.99-2.38,3.23-4.47,3.93-6.88,2.8-2.79,6.1-3.55,9.07-6.04.73.16,2.23-.78,2.93-.9.25-.25.5-.5.79-.79h6.67c.18-.14.33-.27.51-.41.44-.08.93-.19,1.27.35h2.08c.16.15.31.29.48.43h4.61c.55.52.98.38,1.71.41.16-.14.31-.28.45-.4.97-.14,1.58.68,2.44.85.14-.12.3-.25.47-.4.14.12.28.25.44.39h1.24c.3.51,1,.4,1.34.85.84-.17,1.48.79,2.2.45.49-.08.6-.6,1.1-.42,1.33,1.87,5.88,1.36,6.75,3.35.42,0,.84,0,1.26,0,.1.1.2.2.37.37,1.37-.08,2.7,1.11,4.07,1.38.66.83,1.54,1.28,2.3,2.04.32,0,.53,0,.74,0,1.42.99,3.4,4.03,5.19,4.25.69.7,1.37,1.4,1.86,1.9.84.36,2.43,1.81,3.27,1.97.05.2.1.39.15.58.45.45.89.89,1.39,1.39.22.01.49.02.89.05.66.66,1.4,1.4,2.14,2.14,1.26,3.48,7.75,6.37,7.75,10.35.96.95,1.96,1.93,2.81,2.78.67,1.45,1.34,4.74,2.67,5.63.02,1.02,1.01,2.97,1.68,3.77v3.34c-.13.14-.27.29-.42.45v.83c-1.11.46-1.26,3.2-1.26,4.1-.26.47-.52.93-.84,1.48v1.14c.13.14.27.3.41.44v.7c-.42.82-.78,1.51-1.23,2.38v3.06c-.25.77-1.22,1.64-1.69,2.29-.11.92.04,1.96-.06,2.98-.76.76-1.24,1.43-1.24,2.51-1.41.89-1.87,3.44-2.95,4.66v1.23c-.55.54-1.1,1.08-1.48,1.45-1.37,2.71-3.13,5.16-5.24,7.38v.96c-.41.33-.9.71-1.39,1.1.06.05.13.11.19.16-.37.61-1.36,1.86-1.39,2.6-.33.02-.6.04-.89.06-.36.21-.87.54-.76,1.05-1.02.49-2.49,5.15-4.42,4.42-.5.49-1.01.97-1.48,1.43.09.58-.35.77-.61,1.09h-.82c-.16.15-.31.29-.47.43h-.82c-.16.15-.31.29-.45.42-1.07.08-1.36.23-3.18,1.75-.19-.15-.4-.31-.62-.48h-2.08c-.1.1-.2.2-.38.38h-1.69l-.42.42c-.42.03-.9.07-1.37.1-.32.69-1.27.04-1.59.76h-2.09c-.16.15-.32.28-.48.43h-5.04c-1.13-1.94-4.55-4.5-6.27-6.19-1.55-1.53-3.32-2.53-4.87-4.08v-1.34c-.31-.16-.69-.35-.87-.44v-1.16c-.56-.56-1.22-.79-1.96-.68-.1-.2-.25-.51-.4-.81-.04.04.06-.06.2-.2v-1.61c-.31-.62-.63-1.26-.96-1.92-.7-.03-1.31-.39-1.93-.74.1-.1.2-.2.37-.37v-2.07c.2-.25.31-.39.42-.52-.45-.42-2.19-.18-2.7-.18-.16.14-.31.27-.45.4-.26-.26-.51-.51-.76-.76-.48-.09-.96-.21-1.34.4-.34-.91.59-2.02,1.01-2.82-.14-.14-.32-.34-.53-.56h-.81c-.33-.65-.75-1.22-1.28-1.71h-3.02c-.11.11-.21.21-.3.3-.39.21-.81.07-1.22.11-1.91,1.04-3.08,3.76-4.6,5.29.05.22.07.35.11.53.17.04.36.08.62.13.04.14.1.33.16.51-.71.39-1.39.77-2.02,1.12-.29.75-.12,2.06-.12,2.83.42,1.3,1.27,1.93,1.68,3.11v.99c.15.16.29.31.43.47-.03.61.05,1.23-.08,1.95-.34-.52-.33-.52-.38-1.17-.28-.18-.39-.6-.91-.6-.01,0-2.27,2.42-2,2.18,0,.55,0,.9,0,1.25.35.91.91,1.66,1.68,2.25-.34,1.26,1.8,2.91,2.51,3.8-.12.13-.25.28-.39.43,1.45,1.39,2.98,2.56,4.42,4.01,1.47-.46,7.74,3.94,8.66,4.86-.05.23-.08.36-.13.58-.31.02-.64.04-.96.05-.16.14-.32.28-.48.42h-4.17l-.36.36h-4.09c-1.45,1.09-2.39,2.35-3.74,3.48v1.25c-.27.79-1.37.99-1.31,2h-1.37c-.2-.12-.48-.28-.86-.52-.27.39-.52.73-.7.98h-1.43c-.53.55-1.06,1.11-1.63,1.7h-1.44c-.11,1.1-.51,2-1.32,2.68v1.05c.38.03.71.06,1.1.1.05.17.1.36.16.58-.31.15-.6.28-.88.42v1.16c-.52.73-.98,1.38-1.5,2.1-.32-.68-.13-1.31-.2-1.95-.11-.13-.25-.28-.4-.46v-.82c.39-.31,1.01-.33,1.21-.91l-.65-.65c-.32.16-.66.33-.99.49-.42-.03-.54-.43-.84-.63,0-1.36,1.84-2.69,2.66-3.51.19-.05.38-.1.57-.15.19-.42.38-.83.57-1.24-.16-.29-.32-.57-.43-.77.49-.49.93-.92,1.26-1.24v-2.35c-.09-.09-.19-.2-.4-.42-.08-.48.02-1.1-.03-1.7-.15-.16-.28-.31-.41-.46v-1.15c-.08-.11-.2-.27-.41-.55v-1.62c-.32-.32-.57-.57-.94-.94.49-.37.98-.74,1.33-1v-3.17q-.42.07-.62.25h-.89c-.3-.57-.09-1.21-.16-1.81.16-.22.31-.43.51-.72-.17-.23-.32-.44-.51-.68v-1.89c-.48-.94-.89-1.75-1.38-2.69.25-.21.5-.42.74-.61.18.15.34.29.51.43.68-.14.96-.73,1.39-1.13,0-.3-.09-.43-.85-1.36,0-.2,1.34-2.05,1.25-1.99v-1.67l-.36-.36v-2.63c.1-.1.2-.2.33-.33v-1.38c.12.07-1.18.22-1.38.27-.44-.24-.73-.7-1.15-1.1.08-.69.74-.94,1.11-1.42h.83c.45-.42.01-.96.26-1.36-.18-.2-.32-.36-.47-.53v-2.48c-.7-1-2.13-.9-2.72-1.93h-2.97c-.17.14-.31.26-.49.42-.11-.29-.2-.53-.32-.87-.33.12-.65.23-.98.35-.25-.46-.02-.95-.14-1.38.52-.29.45-.72.45-1.14-.65-.54-.33-1.59-.82-2.25v-1.19c-.15-.16-.28-.31-.43-.48v-1.67c.13-.14.27-.29.4-.44-.14-.15-.28-.31-.38-.43v-2.12c.12-.12.22-.22.36-.36v-1.29c-.47-.56-.32-1.12-.78-1.72v-2.5c.11-.12.25-.28.45-.5-.42-.08-.8-.15-1.24-.24-.07-.76.37-1.27.77-1.9ZM237.79,291.62c-.09.25-.17.5-.25.73h-.48c-.19-.19-.38-.39-.6-.62v-1.76c-.42-.34-.9-.73-1.28-1.04v-1c.15-.17.29-.32.4-.44.44-1.17-1.04-1.07.64-1.46.15.14.3.29.46.43h.83c.22.38,1.53.63,1.86.81.68.68,1.17,1.16,1.71,1.71.05.67-2.82,2.54-3.29,2.65ZM311.01,329.74c-.23.17-.56.42-.89.68.03.03.06.06.09.09-.76.38-1.51.75-2.55,1.27-.46.47-1.14,1.17-1.82,1.87h-.88c-.53.56-1.05,1.12-1.61,1.72-.81-.26-1.35.58-2.21.4-.97.97-2.3,1.14-3.3,2.04-.82,0-1.06,1.05-1.89,1.04-1.39.91-2.69,1.87-4.22,2.56-1.53,1.41-3.4,1.65-4.8,3.21.13.2.27.42.44.68-.14.15-.32.35-.58.61-.43-.43-.85-.85-1.27-1.27-1.09,1.09-2.19,2.19-3.28,3.28-3.2.83-6.11,3.97-9.16,5.32,0,.19,0,.33,0,.47-.28.19-.41.57-.92.65-.14-.1-.35-.25-.61-.44h-5.41c-.2-.39-1.91-1.44-2.34-1.32v-.58c-.54-.59-1.3-.64-2.27-.15-.5-.79-2.62-1.92-3.21-2.34v-.4c-.52-.54-1-1.05-1.46-1.54-.18,0-.32-.02-.45-.02-.55-.55-1.09-1.09-1.64-1.64-.14,0-.27-.02-.42-.03,0,0-.81-2.15-1.06-2.29v-1.22c-1.1-1.25-1.52-3.76-2.96-4.68v-1.71c-.43-.24-1.52-2.36-1.66-2.58v-1.57c-.14-.17-.28-.32-.43-.51v-.76c-.17-.32-.59-.47-.46-.84-.41-.93-1.43-1.06-2.06-1.74v-2.19c-.43-.35-.91-.75-1.3-1.07v-1.69c-.72-1.41-1.38-2.69-2.1-4.08v-.55c.44-.9-.29-1.08-.72-1.3l-.05,1.22q-.19-.19-.97-.21c-.44.16.29-.51.91-1.08-.21-.14-.26-.33.14-.72-.41-.57.06-1.23-.18-1.71.22-.38.38-.66.71-1.25,3-3,5.27-6.54,8.13-9.4v-1.67c.28-.29.47-.49.66-.69h.85c2.27-2.27,4.7-4.3,6.95-6.53,0-.15,0-.29,0-.43,1.77-1.77,3.69-3.28,5.47-5.02.11-.66-.52-.81-.83-1.51.05-.76.4-1.28.46-2.03.22-.03.41-.06.57-.08.37.3.16.68.22,1-.16.21-.31.42-.42.56-.02.53.4.64.54.86.47-.47.95-.95,1.45-1.45-.18-.19-.45-.48-.72-.77v-1.26c.26-.26.5-.5.81-.81.01-.21.03-.48.04-.83.09-.11.23-.29.4-.5-.06-1.14-.11-1.95-.17-3.09-.08-.08-.15-.15-.23-.23v-1.7c.26-.27.54-.57.82-.86v-2.53l-.68-.68c-.31.68-.05,1.38-.18,1.98-.53.44-1.4.87-1.93.97-.13-.18-.18-.37-.16-.58.55-.28,1.11-.56,1.68-.85-.58-.58-1.13-1.13-1.66-1.66-.08-.29.85-1.66,1.02-1.9.15.13.3.27.45.4.35-.26.12-.65.23-.97-.15-.17-.28-.32-.44-.5v-.89c-.35-.24-.72-.49-1.1-.75-.02.03-.04.05-.06.08-.6-.6-1.19-1.19-1.79-1.79,0-.14-.01-.27-.02-.41-.23-.4-.62-.18-.83-.22-.73.73-1.42,1.42-1.94,1.94-.47.1-.66.15-.91.2-.04.16-.09.35-.16.61-.23.25-.52.55-.81.85v.83c-.56.3-.34.85-.42,1.14-.26.32-.43.53-.6.75-.14-.14-.24-.24-.34-.34-.49-.19-1.94,2.12-2.15,2.42-.23.01-.37.02-.51.03-.79.79-1.59,1.59-2.38,2.38-2.18.25-4.76,1.8-6.62,2.82-.03.49-.05.96-.08,1.47h-1.06c-.83-1.48-.86-1.17-2.07-.37h-1.66c-.16.15-.31.29-.46.42-.37,0-.72,0-1.07,0-.46.24-.93.48-1.55.81h-2.41c-.13-.12-.33-.31-.6-.55v-1.67c-.28-.3-.47-.5-.66-.71-.8.01-.97.62-1.18,1.21-.29-.1-.52-.29-.68-.55.36-.36.7-.7,1.02-1.02.22-.05.41-.1.61-.15v-2.19c-.53-1.04-1.98-1.13-2.53-2.29.06-.14.13-.31.21-.5l.79.79c.31.02.37-.32.58-.43.35-.48.13-2.17.13-2.66l-1.24-1.24v-1.27c.1-.12.24-.27.38-.43-.13-.14-.27-.29-.41-.44v-7.15c-.53-.53-.12-.89-.46-1.44.34-.65.64-1.23.92-1.77-.19-.27-.34-.49-.52-.75.28-.66.94-1,1.31-1.53v-1.66c-.16-.19-.29-.34-.4-.47v-1.15c.1-.12.22-.28.39-.49v-.88c.28-.2.62-.45.87-.63v-1.4c.15-.16.29-.31.43-.47v-.46c.24-.08.48-.17.73-.25.36-.49.4-1.08.11-1.77-.18-.21-.31-.36-.42-.5v-.67c.27-.82,2.41-3.05,3.06-3.62-.18-.27-.32-.49-.52-.78v-1.42c.49-.4,1.13-.92,1.66-1.35.06-.81-.54-.96-.81-1.37v-.85c.75-.47.83-1.52,1.63-2.06v-1.42c-.25-.18-.64-.47-1.29-.94h-2.66c-.37-.37-.15-.74-.23-1.07.64-.51,1.14-1.14,1.49-1.89h.84l1.5,1.5c1.51.74,2.85,1.4,4.18,2.05v6.33c-.15.16-.29.31-.42.45.01.15.02.29.03.45.84.17,1.52.57,2.05,1.19-.12.14-.25.29-.39.45v1.7c.33.3.68.63,1.08,1,.27.02.6.04.97.07v.89c.19.46.45,1.1.65,1.56.7.7,1.49,1.49,2.29,2.29-.08.94,1.78,1.89,2.38,2.37h1.23c.92.88,1.83,1.51,2.78,2.35,1.08.96,3.07,2.07,3.97,3.12h1.75c.22.28.48.61.65.83.49.11.86-.11,1.16.19-.13.21-.26.42-.37.6.06.53,2.54,2.41,2.63,2.51.8.32,1.62.63,2.2,1.36h1.17c1.58.54,2.22,2.87,4.32,2.98.13.12.28.26.44.4h1.25c.39.78,2.91,2.24,3.8,2.11.95.95,5.45,7.04,7.49,6.75.47.7,1.09,1.15,1.87,1.35.43.43,2.39,3.48,3.32,3.32,1.6,1.6,3.42,3.38,4.76,5.19,1.26,1.7,1.81,4.6,3.43,5.95v1.16c1.86,3.2,3.36,5.82,5.05,9.09v.71c.25.23.5.47.79.74.15.87-.02,1.78.1,2.66.4.4.79.79,1.06,1.06.23.45.37.74.58,1.16v1.94c.1.11.2.21.38.4.13.65,0,1.42.05,2.05.63,1.06.87,3.08,1.67,3.88v2.92c.15.16.29.31.43.47v1.66c.14.16.29.31.43.47v3.63c.28.52.49.93.79,1.49v2.74c.14.18.27.33.43.54v1.34ZM404.61,233.98c-.26.26-.51.51-.78.78-.14,1.63-2.09,4.13-1.76,5.54-.14.16-.28.32-.4.46,0,.83-.16,2.11.05,2.96.1.1.2.2.34.34v.92c-.18.15-.18.15-.65-.25-.52-.08-.68.4-1,.63v2.49c-.51.51-1.01,1.01-1.48,1.48-.21.05-.4.1-.58.14v1.1c.38.04.71.07,1.03.1.21.2.41.4.6.59v.43c-.7.64-1.23-.19-1.86-.22,0,0-.83,2.16-1.07,2.29v2.12c-.72.36-.97.56-1.69.65-.5.5-.93.94-1.26,1.27h-.66c-.54.55-1.08,1.1-1.55,1.58-1.79.78-4.81,3.71-6.48,3.93-1.85,2.07-5.26,2.1-7.12,4.17-.56-.22-.73.68-1.29.45-1.11,1.01-4.03,1.86-4.68,2.94-1.4-.27-2.52,2.28-3.5,3.02-.22-.34-.44-.69-.58-.9-.4-.03-2.01.88-2.22,1.25-.35,0-.71,0-1.06,0-.92.43-2,1.32-3.06,1.26-.92.66-1.96,1.05-3.05,1.28-.87,1.09-2.33,1.24-3.4,2.09h-3.33c-.54.57-1.04.25-1.74.48l-.31.31h-2.21c-.09-.09-.19-.19-.37-.37h-2.11c-.17-.17-.27-.27-.4-.4h-2.06c-.17-.14-.32-.28-.5-.43h-1.25c-.13.12-.28.26-.44.41-.42.15-.59-.25-.88-.43h-.79c-.18-.15-.33-.29-.47-.41h-1.13c-.19.13-.4.27-.63.43-1.4-.55-2.16-1.46-3.25-2.49-.36-.15-.94.15-1.23-.44h-1.65c-1.03-1.1-2.92-1.19-4.1-2.28v-1.81c-.82-.82-1.66-1.66-2.53-2.53v-1.2c-.21-.21-.41-.41-.61-.61h-1.35c-.23-1.27-.65-2.03-1.6-2.88-.34-.75-.53-1.16-.76-1.67-1.17-1.17-2.42-2.42-3.67-3.67.39-1.72-3.09-4.28-4.24-4.97.15-.19.25-.33.39-.51v-1.02h-2.68c-.32-.66-.5-1.36-1.35-1.39-1.1-1.35-3.62-2.56-5.15-3.29h-1.12c-.16-.19-.34-.41-.59-.71v-.61c-.37-.92-1.57-.7-1.79-1.57-.54-.09-1.08.07-1.38-.47h-.85c-.14.13-.29.27-.44.41h-.84c-.4-.4-.8-.8-1.2-1.2-.88-.15-2.19-1.68-1.99-2.52-.82-.15-1.58,0-2.33-.11-.25-.46-.69-.39-1.23-.39-.61-.61-1.2-.84-1.87-1.44-.01-.23-.02-.5-.04-.83-.63-.72-3.04-2.35-3.98-2.35-.69-.7-1.38-1.41-1.87-1.91-.53-.27-.82-.42-1.24-.63h-2.37c-1.83-2.16-5.51-2.71-7.59-4.63h-1.53c-.36-.26-.64-.45-.93-.65.24-.42.39-.71.55-.99.11-1.55-3.79-1.15-2.95-3.55-2.13-2.44-2.56-4.7-.23-7.02h.89c.34-.75,2.38-1.9,3.22-1.71.75-.4,1.5-.8,2.36-1.26h1.95c.16-.15.31-.29.47-.43h.82c.16-.15.32-.29.44-.4h.83c.19.16.34.29.54.46.52-.27,1.04-.54,1.71-.88h6.59c.12.11.27.25.44.4h2.5c.16.15.31.29.47.43h2.93l.41.41c1.07.03,2.24,0,3.39.02.13.13.22.22.37.37h4.14c.18.14.34.26.6.48h2.9c.17.17.27.27.39.39.14-.13.29-.25.45-.39h8.82c.16-.15.31-.29.47-.43h2.51c.1-.1.2-.2.37-.37.96-.14,2,.04,3.03-.08.1-.1.2-.2.34-.34h3.71c.18-.14.34-.26.61-.48h1.64c.17-.17.27-.27.39-.39h1.66c.3-.29.6-.58.9-.86.44-.16.59.27.85.4h1.27l.36-.36h2.79c.54-.3,1-.55,1.58-.87h4.05c.16-.15.31-.28.48-.43h4.6c.16-.15.31-.29.47-.43h6.31c1.08-1.08,4.87-.42,6.28-.42.42-.33,5.32-1.44,5.94-1.26.16.15.32.29.48.43h5.87l.34.34c.3.03.63.07.95.11l.38.38h4.22c.17.17.27.27.39.39h1.03c1.4.68,2.8,1.38,4.19,2.1h1.75c.47.23.81.41,1.23.62.02.42.05.89.07,1.35.34.24.82.2,1.04.59.21,0,.42,0,.71,0,1.27.83,2.94,1.14,3.73,2.32,1.46.74,2.67,1.36,4.17,2.12.22.2.67.62,1.13,1.04,1.29-.21,4.05,3.27,4.55,3.77.14,0,.27.01.47.02.15.18.32.4.6.73,0-.18.43,2.62.34,2.74.35.37.64.67.93.98v.4c.7.7,1.4,1.4,2.1,2.1v.83c.15.16.29.31.41.44v2.11Z" class="cls-1"></path>
  <g>
    <path d="M12.56,170.84c-1.71-4.21-2.33-7.8-1.87-10.79.88-2.48,2.38-4.16,4.52-5.03,2.88-1.17,6.5-1.11,10.86.19,1.35.82,1.89,2.94,1.62,6.36,1.16,5.65,4.03,9.21,8.59,10.7,2.33-.15,2.85-1.22,1.57-3.22-.74-1.83-2.39-4.48-4.95-7.95-3.4-5.63-4.9-10.43-4.49-14.4,1.47-4.95,4.44-8.24,8.92-9.87,3.15-1.2,6.85-1.63,11.1-1.29,3.4.66,6.48,1.64,9.26,2.96,5.15,2.67,11.34,8.58,18.57,17.73,1.68,2.57,2.86,4.68,3.52,6.32,1.68,4.14,2.39,7.62,2.13,10.45-.45,3.2-2.03,5.36-4.73,6.45s-5.21,1.83-7.4,2.16c-1.94.47-4.48.56-7.61.25-2.17-.58-3.42-1.29-3.77-2.15-.56-.82-1.47-4.63-2.72-11.43-1.35-4.71-3.66-8.82-6.91-12.32-4.47-3.98-7.33-5.64-8.59-4.99-1.15.47-1.09,1.73.19,3.8,1.35,2.35,4.19,6.18,8.52,11.48,1.42,1.91,2.55,3.91,3.39,6,1.49,3.06,1.44,5.88-.15,8.47-2.09,2.48-4.89,4.5-8.4,6.06-7.24,2.94-14.01,2.13-20.3-2.44-1.53-.58-3.83-2.79-6.91-6.61-1.81-2.57-3.13-4.86-3.95-6.88Z" class="cls-1"></path>
    <path d="M.87,87.92c1.04-3.22,3.15-6.03,6.3-8.46,4.63-2.73,10.01-4.25,16.15-4.56,3.72-.03,7.39.39,11,1.27,2.89.61,6.09,2.04,9.58,4.27,4.41,2.72,8.86,7.61,13.35,14.66,3.05,5.02,5.17,9.76,6.38,14.24.89,2.39,1.2,6.07.93,11.04-1.26,5.05-4.74,8.67-10.43,10.87-4.27,1.4-8.87,1.75-13.8,1.05-5.3-.79-10.71-2.65-16.24-5.57-4.46-2.59-7.85-4.9-10.17-6.92-.9-.57-2.62-2.3-5.16-5.17-3.18-3.65-5.86-8.28-8.02-13.87-1.02-3.59-.98-7.87.13-12.85ZM46.16,114.56c3.21.74,5.12-.94,5.72-5.04-.37-4.39-1.47-7.76-3.28-10.11-3.08-3.94-6.2-6.14-9.36-6.6-2.82.18-4.55,1.28-5.17,3.29-.22,5.07,1.77,9.9,5.98,14.48,2.16,2.06,4.2,3.38,6.12,3.96Z" class="cls-1"></path>
    <path d="M44.72,26.09c1.84-1.91,4.07-3.82,6.71-5.72,1.84-1.18,3.99-1.19,6.45-.01,4.95,2.32,10.71,6.57,17.27,12.74,7.41,6.97,12.64,13.22,15.7,18.75.25,2.57-.28,5.59-1.58,9.03-1,3.27-2.35,5.8-4.06,7.57-1.86,1.93-5.6,1.62-11.23-.95-3.33-1.05-7.19-2.77-11.59-5.15-2.16-.87-6.61-3.26-13.35-7.16,10.85,9.11,18.58,15.02,23.18,17.73,2.74,1.59,2.74,3.9,0,6.92-3.24,3.41-6.51,5.46-9.83,6.14-1.65.39-3.26-.09-4.84-1.43-3.74-1.96-9.92-6.91-18.51-14.83-9.18-8.82-13.85-14.23-14.02-16.22-1.22-2.71-.11-6.01,3.33-9.9,4.44-5.08,7.71-7.29,9.8-6.61,3.72,0,13.3,4.02,28.76,12.06-5.42-4.77-11.13-9.26-17.1-13.48-1.09-.45-2.99-1.66-5.7-3.62-1.29-1.24-1.09-3.2.6-5.86Z" class="cls-1"></path>
    <path d="M97.96,2.36c2-.59,4.23.18,6.69,2.32,2.95,3.23,5.84,9.17,8.68,17.81.9,2.4,1.64,4.92,2.23,7.56,1.3,6.07,1.96,11.26,1.99,15.57-.16,2.55-1.12,4.24-2.87,5.08-2.91,1.82-5.88,3.05-8.92,3.68-3.26.96-6.46.11-9.6-2.56-1.05-1.57-3.03-6.76-5.94-15.58l-1.15-3.9c-1.33-4.64-2.26-8.86-2.77-12.66-.47-2.88-.51-5.83-.11-8.84,1.78-3.21,5.71-6.03,11.77-8.47Z" class="cls-1"></path>
    <path d="M155.8,1.31c5.05,1.88,7.67,5.25,7.86,10.12-.23,3.45-1.02,6.64-2.36,9.55-.95,2.54-2.91,4.41-5.89,5.61-.63-.1-.96-.09-1.01.03-.42-.16-1.72-.97-3.91-2.45l-.87-.33c-5.9-1.38-9.39-.61-10.47,2.3l-.53,1.41c-.02,2.93,1.14,4.84,3.48,5.71-.04.12.4.35,1.34.7,1.87-.19,4.75-1.12,8.64-2.8,1.44-.13,2.49-.07,3.15.18,1.46.55,2.43,2.98,2.89,7.3.23,1.94.07,3.81-.48,5.61-1.61,4.32-5.57,7.25-11.9,8.8-3.5.02-6.18-.31-8.04-1.01l-.18-.07c-7.69-2.86-12.65-7.31-14.87-13.34-1.45-3.38-1.92-6.76-1.42-10.15,0-2.87,1.1-7.27,3.31-13.2,2.09-5.6,6.2-10.01,12.35-13.23,5.19-2.49,11.49-2.74,18.9-.76Z" class="cls-1"></path>
    <path d="M215.15,29.14c3.1,2.86,5.07,5.62,5.91,8.27.29,2.38-.25,4.33-1.64,5.83-1.88,2.03-4.85,3.31-8.94,3.83-1.43-.18-2.73-1.74-3.91-4.68-3.24-4.26-7.02-6.17-11.35-5.72-1.84.98-1.83,2.06.03,3.25,1.35,1.24,3.77,2.84,7.26,4.78,5.06,3.42,8.23,6.86,9.51,10.3.81,4.64-.28,8.47-3.27,11.47-2.08,2.15-4.92,3.87-8.53,5.15-3.04.7-5.95,1.02-8.75.95-5.28-.33-12.73-2.96-22.34-7.89-2.42-1.52-4.23-2.83-5.44-3.95-3.05-2.82-5.05-5.45-5.98-7.89-.93-2.83-.52-5.19,1.24-7.09s3.5-3.44,5.16-4.51c1.39-1.1,3.42-2.11,6.11-3,2-.32,3.32-.18,3.95.4.79.47,3.08,3.3,6.86,8.49,3.02,3.41,6.56,5.97,10.64,7.68,5.26,1.66,8.27,1.99,9.03.99.75-.81.19-1.84-1.7-3.08-2.05-1.46-5.92-3.59-11.6-6.4-1.93-1.07-3.67-2.31-5.2-3.73-2.45-1.99-3.56-4.35-3.31-7.08.7-2.82,2.16-5.53,4.39-8.12,4.71-5.1,10.56-6.91,17.55-5.43,1.49-.08,4.26.91,8.32,2.95,2.52,1.46,4.52,2.88,6.01,4.26Z" class="cls-1"></path>
  </g>
</svg>